<svg width="30" height="33" viewBox="0 0 30 33" fill="none" xmlns="http://www.w3.org/2000/svg">
<path d="M14.9277 0.754883C19.8496 0.754883 23.4531 2.09961 25.7383 4.78906C28.0234 7.46094 29.166 11.2402 29.166 16.127C29.166 19.3438 28.6123 22.1826 27.5049 24.6436C26.415 27.1045 24.7539 29.0381 22.5215 30.4443C20.3066 31.833 17.5908 32.5273 14.374 32.5273C11.1924 32.5273 8.54688 31.8945 6.4375 30.6289C4.32812 29.3633 2.76367 27.5879 1.74414 25.3027C0.724609 23 0.214844 20.293 0.214844 17.1816C0.214844 13.9121 0.733398 11.0557 1.77051 8.6123C2.80762 6.15137 4.4248 4.22656 6.62207 2.83789C8.81934 1.44922 11.5879 0.754883 14.9277 0.754883ZM15.6396 25.0654C16.7822 25.0654 17.4502 24.9951 17.6436 24.8545C18.0479 24.1514 18.3555 23.1318 18.5664 21.7959C18.7949 20.4424 18.9092 18.9922 18.9092 17.4453C18.9092 16.0215 18.8125 14.6768 18.6191 13.4111C18.4434 12.1455 18.1973 11.1699 17.8809 10.4844C17.6875 10.2734 17.2041 10.1064 16.4307 9.9834C15.6748 9.86035 14.9541 9.79883 14.2686 9.79883C13.7764 9.79883 13.2842 9.8252 12.792 9.87793C12.3174 9.93066 12.0098 10.001 11.8691 10.0889C10.9902 11.5303 10.5508 13.7012 10.5508 16.6016C10.5508 17.9551 10.6475 19.3262 10.8408 20.7148C11.0342 22.1035 11.2803 23.3252 11.5791 24.3799C11.79 24.6084 12.291 24.7842 13.082 24.9072C13.8906 25.0127 14.7432 25.0654 15.6396 25.0654Z" fill="url(#paint0_linear_335_1457)"/>
<defs>
<linearGradient id="paint0_linear_335_1457" x1="-2" y1="12" x2="32" y2="12" gradientUnits="userSpaceOnUse">
<stop stop-color="#D34FFF"/>
<stop offset="0.1" stop-color="#41D6FF"/>
</linearGradient>
</defs>
</svg>
