<svg width="33" height="40" viewBox="0 0 33 40" fill="none" xmlns="http://www.w3.org/2000/svg">
<path d="M14.902 39.756C11.77 39.756 9.106 39.054 6.91 37.65C4.714 36.246 3.04 34.257 1.888 31.683C0.736 29.091 0.16 26.04 0.16 22.53C0.16 17.67 0.817 13.602 2.131 10.326C3.445 7.05 5.272 4.584 7.612 2.928C9.97 1.272 12.706 0.443998 15.82 0.443998C18.574 0.443998 21.031 1.11 23.191 2.442C25.369 3.774 27.079 5.835 28.321 8.625C29.563 11.397 30.184 14.952 30.184 19.29C30.184 23.214 29.59 26.724 28.402 29.82C27.232 32.898 25.504 35.328 23.218 37.11C20.95 38.874 18.178 39.756 14.902 39.756ZM19.114 34.734C20.608 34.14 21.877 33.024 22.921 31.386C23.983 29.748 24.766 27.786 25.27 25.5C25.36 25.122 25.441 24.735 25.513 24.339C25.585 23.943 25.63 23.556 25.648 23.178C25.684 22.944 25.711 22.71 25.729 22.476C25.765 22.242 25.792 22.008 25.81 21.774C25.828 21.54 25.846 21.315 25.864 21.099C25.9 20.775 25.918 20.451 25.918 20.127C25.918 19.785 25.918 19.452 25.918 19.128C25.918 18.93 25.918 18.741 25.918 18.561C25.918 18.363 25.909 18.174 25.891 17.994C25.891 17.814 25.882 17.634 25.864 17.454C25.864 17.292 25.855 17.13 25.837 16.968C25.837 16.806 25.828 16.653 25.81 16.509C25.81 16.347 25.81 16.194 25.81 16.05C25.63 13.746 25.243 11.856 24.649 10.38C24.055 8.886 23.326 7.734 22.462 6.924C22.192 6.654 21.922 6.42 21.652 6.222C21.382 6.024 21.094 5.862 20.788 5.736C20.554 5.628 20.311 5.538 20.059 5.466C19.807 5.376 19.546 5.322 19.276 5.304C19.006 5.268 18.673 5.25 18.277 5.25C17.899 5.25 17.638 5.268 17.494 5.304C17.206 5.322 16.918 5.376 16.63 5.466C16.36 5.538 16.09 5.646 15.82 5.79C15.604 5.862 15.388 5.979 15.172 6.141C14.956 6.285 14.74 6.438 14.524 6.6C13.876 7.104 13.291 7.77 12.769 8.598C12.265 9.426 11.806 10.398 11.392 11.514C9.592 10.866 8.161 10.578 7.099 10.65C6.055 10.722 5.434 11.046 5.236 11.622C5.02 12.234 5.263 12.819 5.965 13.377C6.667 13.935 8.188 14.394 10.528 14.754C10.456 15.204 10.375 15.672 10.285 16.158C10.213 16.626 10.15 17.094 10.096 17.562C7.54 17.472 5.749 17.58 4.723 17.886C3.715 18.174 3.238 18.75 3.292 19.614C3.346 20.37 3.85 20.856 4.804 21.072C5.758 21.27 7.45 21.252 9.88 21.018C9.916 23.07 9.979 24.816 10.069 26.256C10.177 27.678 10.474 29.082 10.96 30.468C11.068 30.792 11.185 31.107 11.311 31.413C11.455 31.701 11.608 31.98 11.77 32.25C11.932 32.538 12.121 32.817 12.337 33.087C12.553 33.357 12.778 33.618 13.012 33.87C13.318 34.14 13.642 34.383 13.984 34.599C14.344 34.797 14.74 34.95 15.172 35.058C15.388 35.112 15.613 35.157 15.847 35.193C16.099 35.211 16.36 35.22 16.63 35.22C17.062 35.22 17.485 35.184 17.899 35.112C18.331 35.022 18.736 34.896 19.114 34.734ZM19.168 29.307C18.394 29.325 17.773 29.127 17.305 28.713C16.855 28.281 16.63 27.732 16.63 27.066C16.63 26.364 16.855 25.743 17.305 25.203C17.773 24.645 18.358 24.366 19.06 24.366C19.816 24.366 20.446 24.636 20.95 25.176C21.454 25.698 21.706 26.328 21.706 27.066C21.706 27.732 21.454 28.272 20.95 28.686C20.446 29.1 19.852 29.307 19.168 29.307ZM26.944 31.872C27.538 32.43 28.033 32.925 28.429 33.357C28.825 33.771 29.194 34.194 29.536 34.626C30.22 35.436 30.679 36.201 30.913 36.921C31.147 37.623 31.03 38.208 30.562 38.676C30.112 39.126 29.518 39.261 28.78 39.081C28.042 38.919 27.268 38.46 26.458 37.704C26.188 37.452 25.873 37.155 25.513 36.813C25.153 36.471 24.676 35.994 24.082 35.382C23.47 34.698 23.137 34.086 23.083 33.546C23.029 33.006 23.254 32.466 23.758 31.926C24.28 31.35 24.838 31.098 25.432 31.17C26.044 31.224 26.548 31.458 26.944 31.872ZM20.491 10.974C21.679 9.804 22.633 8.859 23.353 8.139C24.073 7.419 24.703 6.798 25.243 6.276C25.801 5.754 26.404 5.196 27.052 4.602C28.222 3.522 29.122 2.919 29.752 2.793C30.382 2.667 30.94 2.82 31.426 3.252C31.84 3.63 31.957 4.17 31.777 4.872C31.615 5.574 31.048 6.438 30.076 7.464C29.194 8.4 28.249 9.318 27.241 10.218C26.233 11.118 24.946 12.342 23.38 13.89C22.408 14.862 21.589 15.438 20.923 15.618C20.257 15.78 19.69 15.636 19.222 15.186C18.682 14.646 18.538 14.034 18.79 13.35C19.06 12.648 19.627 11.856 20.491 10.974Z" fill="url(#paint0_linear_335_1456)"/>
<defs>
<linearGradient id="paint0_linear_335_1456" x1="-2" y1="20" x2="33" y2="20" gradientUnits="userSpaceOnUse">
<stop offset="1" stop-color="#2EFF5B"/>
<stop offset="1" stop-color="#FFE625"/>
</linearGradient>
</defs>
</svg>
