<svg width="27" height="45" viewBox="0 0 27 45" fill="none" xmlns="http://www.w3.org/2000/svg">
<path d="M14.038 35.5673C14.884 35.5673 15.595 35.5223 16.171 35.4323C16.747 35.3423 17.26 35.2073 17.71 35.0273C17.872 34.9733 18.025 34.9193 18.169 34.8653C18.331 34.7933 18.475 34.7213 18.601 34.6493C18.745 34.5773 18.88 34.5053 19.006 34.4333C19.15 34.3433 19.285 34.2533 19.411 34.1633C19.555 34.0553 19.69 33.9473 19.816 33.8393C19.942 33.7313 20.041 33.6233 20.113 33.5153C20.455 33.1913 20.716 32.8853 20.896 32.5973C21.094 32.2913 21.256 32.0033 21.382 31.7333C21.49 31.5173 21.571 31.2653 21.625 30.9773C21.697 30.6893 21.742 30.4553 21.76 30.2753C21.796 30.0233 21.814 29.7893 21.814 29.5733C21.814 29.3393 21.796 29.0873 21.76 28.8173C21.67 27.8453 21.319 27.0083 20.707 26.3063C20.095 25.5863 19.231 25.0373 18.115 24.6593C17.017 24.2633 15.676 24.0653 14.092 24.0653C12.436 24.0653 10.969 24.2813 9.691 24.7133C8.431 25.1273 7.441 25.7393 6.721 26.5493C6.019 27.3413 5.668 28.3133 5.668 29.4653C5.668 31.3193 6.442 32.8043 7.99 33.9203C9.538 35.0183 11.554 35.5673 14.038 35.5673ZM14.092 39.5093C10.942 39.5093 8.341 38.9423 6.289 37.8083C4.255 36.6563 2.743 35.1443 1.753 33.2723C0.763 31.4003 0.268 29.3753 0.268 27.1973C0.268 25.6133 0.475 24.0383 0.889 22.4723C1.303 20.8883 2.005 19.1963 2.995 17.3963C3.985 15.5783 5.344 13.5173 7.072 11.2133C8.35 9.50334 9.628 7.86534 10.906 6.29934C12.202 4.73334 13.408 3.45534 14.524 2.46534C15.64 1.45734 16.576 0.953338 17.332 0.953338C17.944 0.953338 18.448 1.12434 18.844 1.46634C19.24 1.79034 19.456 2.23134 19.492 2.78934C19.528 3.34734 19.312 3.97734 18.844 4.67934C18.43 5.30934 17.935 5.96634 17.359 6.65034C16.801 7.33434 16.225 8.01834 15.631 8.70234C15.037 9.38634 14.479 10.0523 13.957 10.7003C13.453 11.3483 13.039 11.9603 12.715 12.5363C12.409 13.0943 12.256 13.5893 12.256 14.0213C12.256 14.6333 12.499 15.0833 12.985 15.3713C13.489 15.6593 14.155 15.8843 14.983 16.0463C15.811 16.2083 16.711 16.3793 17.683 16.5593C18.673 16.7393 19.654 17.0183 20.626 17.3963C21.616 17.7563 22.525 18.2963 23.353 19.0163C24.181 19.7363 24.838 20.7083 25.324 21.9323C25.828 23.1563 26.08 24.7313 26.08 26.6573C26.08 29.4113 25.576 31.7423 24.568 33.6503C23.578 35.5583 22.183 37.0163 20.383 38.0243C18.583 39.0143 16.486 39.5093 14.092 39.5093ZM13.66 6.08334C13.804 6.17334 13.939 6.27234 14.065 6.38034C14.209 6.47034 14.344 6.56934 14.47 6.67734C14.614 6.76734 14.758 6.85734 14.902 6.94734C15.478 7.34334 15.658 7.82034 15.442 8.37834C15.244 8.93634 14.884 9.32334 14.362 9.53934C14.092 9.66534 13.813 9.71934 13.525 9.70134C13.237 9.66534 12.958 9.53934 12.688 9.32334C12.598 9.23334 12.499 9.15234 12.391 9.08034C12.301 8.99034 12.202 8.90934 12.094 8.83734C12.004 8.74734 11.914 8.65734 11.824 8.56734C11.338 8.15334 11.104 7.69434 11.122 7.19034C11.158 6.68634 11.338 6.29934 11.662 6.02934C11.878 5.81334 12.166 5.70534 12.526 5.70534C12.886 5.68734 13.264 5.81334 13.66 6.08334ZM10.906 10.0253C10.996 10.1513 11.086 10.2773 11.176 10.4033C11.284 10.5113 11.383 10.6283 11.473 10.7543C11.581 10.8623 11.68 10.9793 11.77 11.1053C11.968 11.3393 12.058 11.5913 12.04 11.8613C12.022 12.1313 11.932 12.3653 11.77 12.5633C11.608 12.7433 11.383 12.8513 11.095 12.8873C10.825 12.9233 10.528 12.8513 10.204 12.6713C10.078 12.5993 9.943 12.5273 9.799 12.4553C9.673 12.3653 9.538 12.2843 9.394 12.2123C9.268 12.1223 9.142 12.0413 9.016 11.9693C8.638 11.7533 8.449 11.4833 8.449 11.1593C8.467 10.8173 8.584 10.5113 8.8 10.2413C9.07 9.93534 9.412 9.73734 9.826 9.64734C10.258 9.53934 10.618 9.66534 10.906 10.0253ZM16.522 5.54334C16.18 5.54334 15.883 5.39934 15.631 5.11134C15.397 4.80534 15.28 4.48134 15.28 4.13934C15.28 3.81534 15.424 3.54534 15.712 3.32934C16.018 3.11334 16.342 3.00534 16.684 3.00534C17.008 3.00534 17.278 3.11334 17.494 3.32934C17.71 3.54534 17.818 3.81534 17.818 4.13934C17.818 4.48134 17.683 4.80534 17.413 5.11134C17.143 5.39934 16.846 5.54334 16.522 5.54334ZM12.526 40.6433C12.544 40.3193 12.553 39.9953 12.553 39.6713C12.571 39.3473 12.589 39.0323 12.607 38.7263C12.643 38.4383 12.67 38.1593 12.688 37.8893C12.724 37.4213 12.913 37.0793 13.255 36.8633C13.615 36.6293 14.02 36.5213 14.47 36.5393C14.884 36.5393 15.28 36.6563 15.658 36.8903C16.036 37.1063 16.234 37.4753 16.252 37.9973C16.27 38.2853 16.27 38.6003 16.252 38.9423C16.252 39.2843 16.243 39.6263 16.225 39.9683C16.225 40.3283 16.216 40.6613 16.198 40.9673C16.126 42.3893 15.91 43.3883 15.55 43.9643C15.19 44.5403 14.686 44.8013 14.038 44.7473C13.372 44.6933 12.94 44.3333 12.742 43.6673C12.562 43.0193 12.49 42.0113 12.526 40.6433ZM10.744 36.4313C9.934 38.2133 9.25 39.5723 8.692 40.5083C8.134 41.4443 7.612 42.0293 7.126 42.2633C6.658 42.4973 6.154 42.4613 5.614 42.1553C5.128 41.8853 4.867 41.4713 4.831 40.9133C4.795 40.3733 5.002 39.6173 5.452 38.6453C5.902 37.6553 6.622 36.3773 7.612 34.8113L10.744 36.4313ZM18.736 37.0253L21.49 35.4593C22.948 37.3313 23.83 38.7713 24.136 39.7793C24.46 40.8053 24.298 41.5073 23.65 41.8853C23.002 42.2633 22.309 42.1463 21.571 41.5343C20.833 40.9223 19.888 39.4193 18.736 37.0253ZM4.642 31.5713L7.018 34.4333C6.514 34.9193 6.028 35.1803 5.56 35.2163C5.092 35.2523 4.624 34.9913 4.156 34.4333C3.706 33.8393 3.562 33.3263 3.724 32.8943C3.886 32.4443 4.192 32.0033 4.642 31.5713ZM4.696 25.1453C5.218 25.1453 5.632 24.9473 5.938 24.5513C6.262 24.1553 6.424 23.6873 6.424 23.1473C6.424 22.6253 6.235 22.2203 5.857 21.9323C5.497 21.6263 5.056 21.4733 4.534 21.4733C3.94 21.4733 3.499 21.6713 3.211 22.0673C2.941 22.4453 2.806 22.8953 2.806 23.4173C2.806 23.9573 2.986 24.3803 3.346 24.6863C3.706 24.9923 4.156 25.1453 4.696 25.1453ZM9.772 21.5813C10.312 21.5813 10.771 21.3923 11.149 21.0143C11.527 20.6183 11.716 20.1233 11.716 19.5293C11.716 18.9533 11.563 18.4763 11.257 18.0983C10.969 17.7203 10.528 17.5313 9.934 17.5313C9.322 17.5313 8.809 17.7203 8.395 18.0983C7.981 18.4763 7.774 18.9533 7.774 19.5293C7.774 20.1233 7.954 20.6183 8.314 21.0143C8.674 21.3923 9.16 21.5813 9.772 21.5813Z" fill="url(#paint0_linear_333_1296)"/>
<defs>
<linearGradient id="paint0_linear_333_1296" x1="-2" y1="19.6993" x2="28" y2="19.6993" gradientUnits="userSpaceOnUse">
<stop stop-color="#2EFF5B"/>
<stop offset="0.6" stop-color="#FFE625"/>
</linearGradient>
</defs>
</svg>
