<svg width="29" height="43" viewBox="0 0 29 43" fill="none" xmlns="http://www.w3.org/2000/svg">
<path d="M0.583984 22.7361C0.583984 16.1794 1.7793 10.8884 4.16992 6.86304C6.57812 2.83765 10.8848 0.824951 17.0898 0.824951C18.6191 0.824951 20.0254 0.921631 21.3086 1.11499C22.5918 1.30835 23.8223 1.76538 25 2.48608C26.1777 3.20679 27.0391 4.28784 27.584 5.72925C27.5137 6.39722 27.3027 7.16187 26.9512 8.02319C26.5996 8.86694 26.1514 9.65796 25.6064 10.3962C25.0615 11.1345 24.4902 11.6707 23.8926 12.0046C22.627 11.2664 21.2471 10.7039 19.7529 10.3171C18.2588 9.91284 16.7031 9.71069 15.0859 9.71069C14.0137 9.71069 13.0293 9.85132 12.1328 10.1326C11.3418 12.1365 10.7881 14.0261 10.4717 15.8015C10.1553 17.5769 9.96191 19.6687 9.8916 22.0769H10.2871C11.4648 19.5281 12.8535 17.7527 14.4531 16.7507C16.0527 15.7312 17.8193 15.2214 19.7529 15.2214C22.9521 15.2214 25.2725 16.1443 26.7139 17.99C28.1553 19.8181 28.876 22.5955 28.876 26.322C28.876 29.3455 28.3574 32.0613 27.3203 34.4695C26.3008 36.8601 24.7627 38.7498 22.7061 40.1384C20.6494 41.5271 18.1445 42.2214 15.1914 42.2214C11.5879 42.2214 8.70508 41.4392 6.54297 39.8748C4.39844 38.2927 2.86914 36.0691 1.95508 33.2039C1.04102 30.3386 0.583984 26.8494 0.583984 22.7361ZM15.4551 34.4695C16.0703 34.4695 16.6328 34.4167 17.1426 34.3113C17.6699 34.2058 18.0566 34.0564 18.3027 33.863C18.584 33.1248 18.8037 32.1843 18.9619 31.0417C19.1201 29.8816 19.1992 28.7039 19.1992 27.5085C19.1992 25.9265 19.0674 24.6257 18.8037 23.6062C18.5225 23.5359 18.1973 23.5007 17.8281 23.5007C16.9492 23.5007 16.0264 23.7029 15.0596 24.1072C14.0928 24.5115 13.1875 25.0476 12.3438 25.7156C11.5 26.3835 10.8145 27.0955 10.2871 27.8513C10.3398 29.2048 10.5244 30.3386 10.8408 31.2527C11.1572 32.1667 11.6318 32.9841 12.2646 33.7048C12.5811 33.9158 13.0293 34.1003 13.6094 34.2585C14.207 34.3992 14.8223 34.4695 15.4551 34.4695Z" fill="url(#paint0_linear_334_1317)"/>
<defs>
<linearGradient id="paint0_linear_334_1317" x1="-2" y1="21.6941" x2="32" y2="21.6941" gradientUnits="userSpaceOnUse">
<stop stop-color="#D34FFF"/>
<stop offset="0.6" stop-color="#41D6FF"/>
</linearGradient>
</defs>
</svg>
