<svg width="29" height="41" viewBox="0 0 29 41" fill="none" xmlns="http://www.w3.org/2000/svg">
<path d="M9.75781 10.0845L8.62402 17.8628L3.74609 18.9175C2.69141 17.5288 1.86523 15.9028 1.26758 14.0396C0.669922 12.1587 0.371094 10.2075 0.371094 8.18604C0.371094 6.67432 0.731445 5.38232 1.45215 4.31006C2.17285 3.22021 3.13086 2.39404 4.32617 1.83154C5.52148 1.26904 6.81348 0.987793 8.20215 0.987793C9.71387 0.987793 11.5947 1.26025 13.8447 1.80518C16.1123 2.3501 18.1777 3.02686 20.041 3.83545C20.6387 3.09717 21.4121 2.45557 22.3613 1.91064C23.3281 1.36572 24.3037 1.05811 25.2881 0.987793C26.4131 1.60303 27.248 2.49951 27.793 3.67725C28.3555 4.85498 28.6367 6.18213 28.6367 7.65869C28.6367 8.60791 28.5137 9.54834 28.2676 10.48C28.0215 11.4116 27.7842 12.0356 27.5557 12.3521C27.1162 12.3696 26.5273 12.3521 25.7891 12.2993C25.0508 12.2466 24.374 12.1675 23.7588 12.062C23.1084 15.8062 22.124 19.7876 20.8057 24.0063C19.4873 28.2251 17.7998 31.9517 15.7432 35.186C13.7041 38.4204 11.3926 40.2046 8.80859 40.5386C8 40.2397 7.13867 39.8091 6.22461 39.2466C5.32812 38.6841 4.52832 38.0073 3.8252 37.2163C3.13965 36.4253 2.72656 35.5728 2.58594 34.6587C6.03125 31.0376 8.87891 27.3286 11.1289 23.5317C13.3789 19.7173 15.1807 15.5073 16.5342 10.9019L9.75781 10.0845Z" fill="url(#paint0_linear_334_1318)"/>
<defs>
<linearGradient id="paint0_linear_334_1318" x1="-1" y1="12.2329" x2="29" y2="12.2329" gradientUnits="userSpaceOnUse">
<stop stop-color="#D34FFF"/>
<stop offset="0.3" stop-color="#41D6FF"/>
</linearGradient>
</defs>
</svg>
