<svg width="25" height="39" viewBox="0 0 25 39" fill="none" xmlns="http://www.w3.org/2000/svg">
<path d="M13.284 35.0533C12.726 36.2593 12.024 37.1413 11.178 37.6993C10.332 38.2393 9.468 38.5093 8.586 38.5093C7.758 38.5093 6.993 38.3023 6.291 37.8883C5.589 37.4563 5.04 36.8713 4.644 36.1333C4.266 35.3953 4.14 34.5403 4.266 33.5683C4.392 32.5963 4.878 31.5613 5.724 30.4633C8.568 26.7553 10.971 23.6593 12.933 21.1753C14.895 18.6733 16.38 16.7203 17.388 15.3163C18.396 13.9123 18.9 13.0033 18.9 12.5893C18.882 12.1033 18.702 11.7703 18.36 11.5903C18.036 11.4103 17.478 11.3653 16.686 11.4553C16.848 9.25926 16.758 7.79226 16.416 7.05426C16.092 6.31626 15.606 5.94726 14.958 5.94726C14.544 5.94726 14.202 6.10026 13.932 6.40626C13.662 6.69426 13.464 7.26126 13.338 8.10726C13.23 8.93526 13.212 10.1593 13.284 11.7793C12.798 11.8513 12.303 11.9143 11.799 11.9683C11.295 12.0223 10.8 12.0673 10.314 12.1033C9.972 9.29526 9.63 7.40526 9.288 6.43326C8.946 5.44326 8.37 4.99326 7.56 5.08326C6.696 5.15526 6.228 5.74026 6.156 6.83825C6.102 7.91826 6.426 9.78126 7.128 12.4273C5.076 12.6073 3.519 12.1573 2.457 11.0773C1.395 9.99726 0.864 8.55726 0.864 6.75726C0.864 5.85726 0.999 5.04726 1.269 4.32726C1.539 3.60726 1.926 2.99526 2.43 2.49125C2.952 1.96926 3.582 1.57326 4.32 1.30326C5.076 1.01526 5.922 0.871256 6.858 0.871256C7.668 0.871256 8.694 0.952256 9.936 1.11425C11.178 1.25825 12.501 1.46525 13.905 1.73525C15.309 1.98726 16.668 2.29326 17.982 2.65326C19.314 2.99526 20.484 3.37326 21.492 3.78726C22.518 4.20126 23.256 4.63326 23.706 5.08326C24.354 5.73126 24.678 6.54126 24.678 7.51326C24.678 8.57526 24.21 10.2763 23.274 12.6163C22.356 14.9383 21.042 17.9623 19.332 21.6883C17.64 25.3963 15.624 29.8513 13.284 35.0533ZM13.824 30.0313L15.336 26.8993C15.39 26.9173 15.444 26.9443 15.498 26.9803C15.552 26.9983 15.606 27.0253 15.66 27.0613C15.984 27.2233 16.155 27.4933 16.173 27.8713C16.209 28.2493 16.137 28.6363 15.957 29.0323C15.759 29.4463 15.48 29.7973 15.12 30.0853C14.778 30.3553 14.454 30.4093 14.148 30.2473C14.076 30.1933 14.022 30.1573 13.986 30.1393C13.968 30.1213 13.914 30.0853 13.824 30.0313ZM15.876 26.4133L17.874 23.0653C19.152 23.8753 20.187 24.5503 20.979 25.0903C21.771 25.6123 22.311 26.0893 22.599 26.5213C22.887 26.9353 22.914 27.3853 22.68 27.8713C22.356 28.4653 21.888 28.7533 21.276 28.7353C20.664 28.6993 19.908 28.4653 19.008 28.0333C18.108 27.5833 17.064 27.0433 15.876 26.4133ZM13.122 24.7933C12.348 24.3253 11.574 23.8483 10.8 23.3623C10.026 22.8583 9.342 22.4173 8.748 22.0393C7.83 21.4453 7.2 20.8693 6.858 20.3113C6.534 19.7533 6.534 19.1953 6.858 18.6373C7.236 17.9893 7.749 17.7013 8.397 17.7733C9.045 17.8453 9.936 18.2233 11.07 18.9073C11.97 19.4113 12.762 19.8793 13.446 20.3113C14.13 20.7433 14.742 21.1213 15.282 21.4453L13.122 24.7933ZM12.798 26.1433C12.24 26.1433 11.754 26.3323 11.34 26.7103C10.944 27.0883 10.746 27.5473 10.746 28.0873C10.746 28.5733 10.944 28.9693 11.34 29.2753C11.754 29.5633 12.24 29.7073 12.798 29.7073C13.266 29.7073 13.635 29.5363 13.905 29.1943C14.175 28.8343 14.31 28.4113 14.31 27.9253C14.31 27.3853 14.175 26.9533 13.905 26.6293C13.635 26.3053 13.266 26.1433 12.798 26.1433ZM9.234 31.1113C8.622 31.1113 8.118 31.3183 7.722 31.7323C7.326 32.1463 7.128 32.6773 7.128 33.3253C7.128 33.9373 7.29 34.4503 7.614 34.8643C7.938 35.2783 8.406 35.4853 9.018 35.4853C9.612 35.4853 10.161 35.2783 10.665 34.8643C11.187 34.4503 11.448 33.9373 11.448 33.3253C11.448 32.6773 11.223 32.1463 10.773 31.7323C10.341 31.3183 9.828 31.1113 9.234 31.1113ZM10.692 26.4673L8.694 29.4373C8.676 29.4013 8.649 29.3743 8.613 29.3563C8.595 29.3203 8.568 29.2933 8.532 29.2753C8.136 28.9693 7.956 28.5913 7.992 28.1413C8.046 27.6913 8.208 27.2953 8.478 26.9533C8.748 26.5933 9.072 26.3323 9.45 26.1703C9.846 26.0083 10.206 26.0533 10.53 26.3053C10.566 26.3233 10.593 26.3503 10.611 26.3863C10.647 26.4043 10.674 26.4313 10.692 26.4673ZM12.744 22.5793L11.988 25.2793C11.7 25.1893 11.493 25.0183 11.367 24.7663C11.259 24.4963 11.232 24.1993 11.286 23.8753C11.34 23.5153 11.493 23.2003 11.745 22.9303C12.015 22.6423 12.348 22.5253 12.744 22.5793ZM9.018 21.6613C8.532 21.6613 8.118 21.4903 7.776 21.1483C7.452 20.7883 7.29 20.3653 7.29 19.8793C7.29 19.4653 7.425 19.0783 7.695 18.7183C7.983 18.3403 8.37 18.1513 8.856 18.1513C9.324 18.1513 9.738 18.3223 10.098 18.6643C10.458 18.9883 10.638 19.3933 10.638 19.8793C10.638 20.4193 10.476 20.8513 10.152 21.1753C9.828 21.4993 9.45 21.6613 9.018 21.6613Z" fill="url(#paint0_linear_333_1297)"/>
<defs>
<linearGradient id="paint0_linear_333_1297" x1="0" y1="19.2393" x2="26" y2="19.2393" gradientUnits="userSpaceOnUse">
<stop stop-color="#2EFF5B"/>
<stop offset="0.3" stop-color="#FFE625"/>
</linearGradient>
</defs>
</svg>
