<svg width="24" height="44" viewBox="0 0 24 44" fill="none" xmlns="http://www.w3.org/2000/svg">
<path d="M0.592 21.3934C0.898 18.6574 1.222 15.9394 1.564 13.2394C1.924 10.5394 2.302 7.85742 2.698 5.19342C2.824 4.31142 3.022 3.61842 3.292 3.11442C3.58 2.61042 4.003 2.24142 4.561 2.00742C5.119 1.77342 5.884 1.62942 6.856 1.57542C8.998 1.46742 11.122 1.35042 13.228 1.22442C15.352 1.09842 17.476 0.981422 19.6 0.873421C20.338 0.837422 20.896 0.999422 21.274 1.35942C21.67 1.71942 21.868 2.24142 21.868 2.92542C21.868 3.59142 21.679 4.09542 21.301 4.43742C20.923 4.77942 20.338 4.99542 19.546 5.08542C18.142 5.24742 16.558 5.39142 14.794 5.51742C13.048 5.62542 11.374 5.75142 9.772 5.89542C9.16 5.94942 8.728 6.10242 8.476 6.35442C8.242 6.58842 8.08 6.99342 7.99 7.56942C7.774 8.95542 7.612 10.0804 7.504 10.9444C7.414 11.7904 7.36 12.4564 7.342 12.9424C7.342 13.4284 7.387 13.8064 7.477 14.0764C7.585 14.3284 7.738 14.5534 7.936 14.7514C8.224 15.0394 8.827 15.2554 9.745 15.3994C10.681 15.5434 11.788 15.7324 13.066 15.9664C14.344 16.2004 15.658 16.5964 17.008 17.1544C18.358 17.7124 19.6 18.5494 20.734 19.6654C21.544 20.4934 22.183 21.5554 22.651 22.8514C23.137 24.1474 23.38 25.6594 23.38 27.3874C23.38 29.3674 22.975 31.2484 22.165 33.0304C21.355 34.8124 20.086 36.2344 18.358 37.2964C16.648 38.3584 14.434 38.7994 11.716 38.6194C9.718 38.4754 8.017 38.1604 6.613 37.6744C5.227 37.1884 4.102 36.5944 3.238 35.8924C2.374 35.1904 1.744 34.4524 1.348 33.6784C0.952 32.9044 0.754 32.1574 0.754 31.4374C0.754 30.7894 0.934 30.2404 1.294 29.7904C1.654 29.3404 2.194 29.1154 2.914 29.1154C3.652 29.1154 4.282 29.3944 4.804 29.9524C5.326 30.5104 5.902 31.1584 6.532 31.8964C7.18 32.6344 8.017 33.2824 9.043 33.8404C10.087 34.3984 11.482 34.6774 13.228 34.6774C15.01 34.6774 16.288 34.3264 17.062 33.6244C17.854 32.9044 18.25 32.0314 18.25 31.0054C18.25 29.7454 17.638 28.7554 16.414 28.0354C15.19 27.2974 13.525 26.7754 11.419 26.4694C9.331 26.1454 6.964 25.9834 4.318 25.9834C3.328 25.9834 2.536 25.8394 1.942 25.5514C1.348 25.2454 0.943 24.7594 0.727 24.0934C0.511 23.4274 0.466 22.5274 0.592 21.3934ZM6.478 22.1494C7.054 22.1494 7.558 21.9514 7.99 21.5554C8.422 21.1594 8.638 20.6914 8.638 20.1514C8.638 19.6654 8.431 19.2334 8.017 18.8554C7.603 18.4594 7.108 18.2614 6.532 18.2614C6.01 18.2614 5.56 18.4414 5.182 18.8014C4.822 19.1614 4.642 19.6114 4.642 20.1514C4.642 20.6914 4.795 21.1594 5.101 21.5554C5.407 21.9514 5.866 22.1494 6.478 22.1494ZM13.768 23.8234C14.362 23.8234 14.884 23.6614 15.334 23.3374C15.802 22.9954 16.036 22.5274 16.036 21.9334C16.036 21.3934 15.784 20.8534 15.28 20.3134C14.776 19.7734 14.2 19.5034 13.552 19.5034C12.94 19.5034 12.427 19.7374 12.013 20.2054C11.599 20.6554 11.392 21.1954 11.392 21.8254C11.392 22.4374 11.617 22.9234 12.067 23.2834C12.535 23.6434 13.102 23.8234 13.768 23.8234ZM19.654 26.9014C20.086 26.9014 20.473 26.7754 20.815 26.5234C21.157 26.2534 21.328 25.8754 21.328 25.3894C21.328 25.0114 21.13 24.6154 20.734 24.2014C20.356 23.7694 19.924 23.5534 19.438 23.5534C18.952 23.5534 18.556 23.7334 18.25 24.0934C17.962 24.4354 17.818 24.8494 17.818 25.3354C17.818 25.8394 17.998 26.2264 18.358 26.4964C18.718 26.7664 19.15 26.9014 19.654 26.9014ZM15.604 8.70342C16.504 8.75742 17.206 8.94642 17.71 9.27042C18.214 9.57642 18.466 10.0534 18.466 10.7014C18.466 11.4034 18.187 11.8804 17.629 12.1324C17.071 12.3664 16.288 12.4834 15.28 12.4834C14.308 12.4834 13.111 12.4564 11.689 12.4024C10.285 12.3484 8.899 12.2854 7.531 12.2134C6.163 12.1234 5.074 12.0334 4.264 11.9434C3.67 11.8534 3.229 11.7004 2.941 11.4844C2.671 11.2504 2.536 10.9174 2.536 10.4854C2.536 9.80142 2.698 9.27942 3.022 8.91942C3.364 8.55942 3.868 8.36142 4.534 8.32542C5.344 8.30742 6.433 8.31642 7.801 8.35242C9.169 8.38842 10.564 8.44242 11.986 8.51442C13.408 8.56842 14.614 8.63142 15.604 8.70342ZM2.698 38.9434C3.004 38.4034 3.328 37.8364 3.67 37.2424C4.03 36.6304 4.435 35.9824 4.885 35.2984C5.173 34.8844 5.506 34.6234 5.884 34.5154C6.28 34.3894 6.703 34.4164 7.153 34.5964C7.621 34.7764 7.927 35.0824 8.071 35.5144C8.215 35.9464 8.188 36.4324 7.99 36.9724C7.738 37.6024 7.459 38.2684 7.153 38.9704C6.865 39.6724 6.586 40.2754 6.316 40.7794C5.866 41.7154 5.353 42.3184 4.777 42.5884C4.219 42.8584 3.67 42.8854 3.13 42.6694C2.626 42.4534 2.293 42.0214 2.131 41.3734C1.969 40.7434 2.158 39.9334 2.698 38.9434ZM11.284 41.0494C11.248 40.5994 11.203 40.0594 11.149 39.4294C11.113 38.8174 11.086 38.1514 11.068 37.4314C11.05 36.8914 11.203 36.4774 11.527 36.1894C11.869 35.8834 12.292 35.7214 12.796 35.7034C13.3 35.6674 13.723 35.7754 14.065 36.0274C14.425 36.2614 14.65 36.6754 14.74 37.2694C14.866 37.9894 14.965 38.6554 15.037 39.2674C15.127 39.8974 15.19 40.4374 15.226 40.8874C15.316 41.8774 15.199 42.5884 14.875 43.0204C14.569 43.4524 14.146 43.6954 13.606 43.7494C13.048 43.8034 12.544 43.6324 12.094 43.2364C11.644 42.8584 11.374 42.1294 11.284 41.0494ZM19.654 39.1594C19.204 38.6374 18.817 38.1784 18.493 37.7824C18.169 37.3864 17.8 36.9274 17.386 36.4054C16.972 35.8834 16.828 35.3884 16.954 34.9204C17.098 34.4344 17.368 34.0294 17.764 33.7054C18.142 33.3814 18.538 33.2554 18.952 33.3274C19.384 33.3814 19.816 33.6154 20.248 34.0294C20.716 34.4614 21.112 34.8484 21.436 35.1904C21.76 35.5324 22.138 35.9374 22.57 36.4054C23.164 37.0534 23.497 37.7284 23.569 38.4304C23.659 39.1144 23.497 39.6364 23.083 39.9964C22.633 40.3924 22.084 40.5004 21.436 40.3204C20.788 40.1404 20.194 39.7534 19.654 39.1594Z" fill="url(#paint0_linear_333_1295)"/>
<defs>
<linearGradient id="paint0_linear_333_1295" x1="-2" y1="20.1594" x2="26" y2="20.1594" gradientUnits="userSpaceOnUse">
<stop stop-color="#2EFF5B"/>
<stop offset="0.5" stop-color="#FFE625"/>
</linearGradient>
</defs>
</svg>
