<svg width="28" height="41" viewBox="0 0 28 41" fill="none" xmlns="http://www.w3.org/2000/svg">
<path d="M3.71777 29.0703C7.91895 31.584 11.3818 32.8408 14.1064 32.8408C14.5986 32.8408 15.0996 32.8057 15.6094 32.7354C16.1191 32.665 16.541 32.5771 16.875 32.4717C17.0332 31.9971 17.1562 31.3115 17.2441 30.415C17.332 29.5186 17.376 28.7451 17.376 28.0947C17.376 27.6201 17.3408 27.1367 17.2705 26.6445C17.2178 26.1348 17.1562 25.7568 17.0859 25.5107C15.7852 24.4736 13.9219 23.7705 11.4961 23.4014C10.8457 24.0342 10.1777 24.5703 9.49219 25.0098C8.80664 25.4492 8.19141 25.7217 7.64648 25.8271C6.5918 25.5107 5.71289 24.9219 5.00977 24.0605C4.30664 23.1992 3.95508 22.3027 3.95508 21.3711C3.95508 20.6152 4.06055 19.9912 4.27148 19.499C4.5 19.0068 4.81641 18.4883 5.2207 17.9434H5.27344C4.35938 15.5879 3.62988 13.373 3.08496 11.2988C2.54004 9.20703 2.26758 7.2998 2.26758 5.57715C2.26758 4.41699 2.41699 3.32715 2.71582 2.30762C4.1748 1.72754 5.72168 1.4375 7.35645 1.4375C8.18262 1.4375 9.11426 1.53418 10.1514 1.72754C11.1885 1.90332 12.5596 2.20215 14.2646 2.62402L23.7832 0.910156C24.4688 1.38477 25.0049 2.16699 25.3916 3.25684C25.7959 4.34668 25.998 5.52441 25.998 6.79004C25.998 8.95215 25.4092 10.5869 24.2314 11.6943C22.9482 12.2217 21.665 12.4854 20.3818 12.4854C18.7646 12.4854 17.2793 12.2305 15.9258 11.7207C14.5898 11.2109 13.2803 10.376 11.9971 9.21582L11.5488 16.8359C12.8672 16.291 14.2646 16.0186 15.7412 16.0186C17.71 16.0186 19.5557 16.4229 21.2783 17.2314C23.0186 18.04 24.4248 19.2881 25.4971 20.9756C26.5869 22.6455 27.1318 24.7197 27.1318 27.1982C27.1318 29.8701 26.4023 32.208 24.9434 34.2119C23.4844 36.2334 21.5508 37.7803 19.1426 38.8525C16.7344 39.9248 14.1504 40.4609 11.3906 40.4609C9.98438 40.4609 8.52539 40.2939 7.01367 39.96C5.50195 39.626 4.10449 38.9932 2.82129 38.0615C1.55566 37.1475 0.738281 35.873 0.369141 34.2383C0.685547 33.1309 1.125 32.1201 1.6875 31.2061C2.26758 30.2744 2.94434 29.5625 3.71777 29.0703Z" fill="url(#paint0_linear_334_1316)"/>
<defs>
<linearGradient id="paint0_linear_334_1316" x1="0" y1="12.1553" x2="29" y2="12.1553" gradientUnits="userSpaceOnUse">
<stop stop-color="#D34FFF"/>
<stop offset="0.5" stop-color="#41D6FF"/>
</linearGradient>
</defs>
</svg>
