<svg width="27" height="43" viewBox="0 0 27 43" fill="none" xmlns="http://www.w3.org/2000/svg">
<path d="M0.917 13.2108C0.917 10.8888 1.457 8.89085 2.537 7.21685C3.635 5.52485 5.111 4.21985 6.965 3.30185C8.819 2.38385 10.889 1.92485 13.175 1.92485C16.019 1.92485 18.44 2.39285 20.438 3.32884C22.454 4.26485 23.984 5.55185 25.028 7.18984C26.09 8.80985 26.621 10.6548 26.621 12.7248C26.621 13.9848 26.423 15.3618 26.027 16.8558C25.649 18.3318 25.019 20.0778 24.137 22.0938C23.273 24.0918 22.13 26.5128 20.708 29.3568C19.286 32.2008 17.531 35.6208 15.443 39.6168C14.993 40.4988 14.498 41.1288 13.958 41.5068C13.418 41.8848 12.905 42.0738 12.419 42.0738C12.041 42.0738 11.699 41.9748 11.393 41.7768C11.087 41.5788 10.844 41.3088 10.664 40.9668C10.484 40.6428 10.385 40.2648 10.367 39.8328C10.349 39.3108 10.448 38.6808 10.664 37.9428C10.898 37.1868 11.177 36.3858 11.501 35.5398C11.843 34.6938 12.185 33.8478 12.527 33.0018C12.887 32.1558 13.184 31.3728 13.418 30.6528C13.652 29.9328 13.769 29.3388 13.769 28.8708C13.769 28.0788 13.454 27.3948 12.824 26.8188C12.212 26.2248 11.42 25.6668 10.448 25.1448C9.476 24.6048 8.441 24.0198 7.343 23.3898C6.245 22.7598 5.21 22.0038 4.238 21.1218C3.266 20.2398 2.465 19.1598 1.835 17.8818C1.223 16.6038 0.917 15.0468 0.917 13.2108ZM5.183 13.1568C5.183 14.6508 5.597 15.9648 6.425 17.0988C7.253 18.2148 8.279 19.0878 9.503 19.7178C10.745 20.3478 11.969 20.6628 13.175 20.6628C13.985 20.6628 14.633 20.4468 15.119 20.0148C15.623 19.5828 15.992 18.9438 16.226 18.0978C16.46 17.2518 16.577 16.1988 16.577 14.9388C16.577 13.6248 16.397 12.3288 16.037 11.0508C15.695 9.75485 15.074 8.68385 14.174 7.83785C13.274 6.99185 11.987 6.56885 10.313 6.56885C9.485 6.56885 8.675 6.81185 7.883 7.29785C7.109 7.78385 6.461 8.51285 5.939 9.48485C5.435 10.4568 5.183 11.6808 5.183 13.1568ZM6.587 33.9468C5.813 33.9468 5.12 33.7308 4.508 33.2988C3.914 32.8668 3.617 32.1648 3.617 31.1928C3.617 30.2028 3.941 29.3748 4.589 28.7088C5.237 28.0248 6.047 27.6828 7.019 27.6828C7.703 27.6828 8.315 27.9438 8.855 28.4658C9.395 28.9878 9.665 29.7528 9.665 30.7608C9.665 31.6788 9.395 32.4438 8.855 33.0558C8.315 33.6498 7.559 33.9468 6.587 33.9468ZM11.879 4.51685L8.315 4.57084C8.315 4.17485 8.36 3.84185 8.45 3.57185C8.558 3.28385 8.729 3.06784 8.963 2.92384C9.197 2.76185 9.521 2.66285 9.935 2.62685C10.331 2.62685 10.673 2.70785 10.961 2.86985C11.249 3.01385 11.474 3.22985 11.636 3.51785C11.798 3.78785 11.879 4.12085 11.879 4.51685ZM21.275 15.1278C20.663 15.1278 20.15 15.3168 19.736 15.6948C19.322 16.0728 19.115 16.6128 19.115 17.3148C19.115 17.8548 19.322 18.3228 19.736 18.7188C20.15 19.1148 20.663 19.3128 21.275 19.3128C21.851 19.3128 22.337 19.1598 22.733 18.8538C23.129 18.5298 23.327 18.0888 23.327 17.5308C23.327 16.7928 23.129 16.2078 22.733 15.7758C22.337 15.3438 21.851 15.1278 21.275 15.1278ZM21.059 8.08085C20.519 8.08085 20.078 8.29685 19.736 8.72885C19.394 9.16085 19.223 9.66485 19.223 10.2408C19.223 10.8348 19.43 11.3118 19.844 11.6718C20.276 12.0138 20.789 12.1848 21.383 12.1848C21.977 12.1848 22.445 11.9778 22.787 11.5638C23.147 11.1498 23.327 10.6368 23.327 10.0248C23.327 9.44885 23.111 8.98085 22.679 8.62085C22.247 8.26085 21.707 8.08085 21.059 8.08085ZM18.791 21.6348C18.197 21.6348 17.711 21.8238 17.333 22.2018C16.973 22.5798 16.793 23.1108 16.793 23.7948C16.793 24.2988 16.973 24.7398 17.333 25.1178C17.711 25.4958 18.197 25.6848 18.791 25.6848C19.331 25.6848 19.781 25.5408 20.141 25.2528C20.501 24.9468 20.681 24.5148 20.681 23.9568C20.681 23.2548 20.501 22.6968 20.141 22.2828C19.781 21.8508 19.331 21.6348 18.791 21.6348ZM15.821 37.1868L17.549 33.8388C19.259 34.5048 20.483 35.1798 21.221 35.8638C21.959 36.5478 22.139 37.2408 21.761 37.9428C21.419 38.5908 20.735 38.8338 19.709 38.6718C18.683 38.4918 17.387 37.9968 15.821 37.1868ZM16.091 33.2988L14.363 36.5928C13.337 36.0708 12.662 35.5578 12.338 35.0538C12.032 34.5318 12.149 33.9108 12.689 33.1908C13.157 32.6688 13.634 32.4618 14.12 32.5698C14.606 32.6778 15.263 32.9208 16.091 33.2988ZM7.1 4.81385L4.022 7.40584C2.69 5.94785 1.745 4.78685 1.187 3.92285C0.647 3.05885 0.386 2.38385 0.404 1.89785C0.422 1.41185 0.593 1.03385 0.917 0.763847C1.259 0.475846 1.664 0.367845 2.132 0.439844C2.618 0.511846 3.257 0.880846 4.049 1.54684C4.859 2.21285 5.876 3.30185 7.1 4.81385ZM21.869 5.86685L18.548 4.35485C18.746 4.06685 18.971 3.86885 19.223 3.76085C19.475 3.65285 19.745 3.60785 20.033 3.62585C20.321 3.64385 20.609 3.71585 20.897 3.84185C21.275 4.00385 21.563 4.20185 21.761 4.43584C21.959 4.66984 22.067 4.91285 22.085 5.16485C22.121 5.41685 22.049 5.65085 21.869 5.86685Z" fill="url(#paint0_linear_333_1299)"/>
<defs>
<linearGradient id="paint0_linear_333_1299" x1="-1" y1="21.3188" x2="28" y2="21.3188" gradientUnits="userSpaceOnUse">
<stop stop-color="#2EFF5B"/>
<stop offset="0.1" stop-color="#FFE625"/>
</linearGradient>
</defs>
</svg>
