<svg width="29" height="40" viewBox="0 0 29 40" fill="none" xmlns="http://www.w3.org/2000/svg">
<path d="M4.9082 28.5684C6.61328 29.6758 8.10742 30.4668 9.39062 30.9414C10.6738 31.3984 11.9922 31.627 13.3457 31.627C15.4727 31.627 16.8174 31.293 17.3799 30.625C17.8018 29.5527 18.1709 28.041 18.4873 26.0898C18.8213 24.1211 19.041 22.2666 19.1465 20.5264L18.9619 20.4209C17.749 22.3545 16.3076 23.752 14.6377 24.6133C12.9678 25.457 11.2891 25.835 9.60156 25.7471C6.45508 25.5713 4.11719 24.3408 2.58789 22.0557C1.05859 19.7529 0.293945 16.7646 0.293945 13.0908C0.293945 8.87207 1.4541 5.64648 3.77441 3.41406C6.1123 1.18164 9.4873 0.0654297 13.8994 0.0654297C19.1201 0.0654297 22.8379 1.59473 25.0527 4.65332C27.2676 7.71191 28.375 11.8867 28.375 17.1777C28.375 24.2969 27.1094 29.8164 24.5781 33.7363C22.0645 37.6562 18.0654 39.6162 12.5811 39.6162C9.92676 39.6162 7.58008 39.2207 5.54102 38.4297C3.51953 37.6562 2.19238 36.1797 1.55957 34C1.89355 32.8574 2.3418 31.7852 2.9043 30.7832C3.48438 29.7812 4.15234 29.043 4.9082 28.5684ZM12.2646 17.5732C13.583 17.5732 14.8311 17.3359 16.0088 16.8613C17.2041 16.3691 18.1357 15.6484 18.8037 14.6992C18.7334 13.6797 18.584 12.5811 18.3555 11.4033C18.127 10.2256 17.8369 9.42578 17.4854 9.00391C17.2041 8.81055 16.6855 8.65234 15.9297 8.5293C15.1738 8.38867 14.4443 8.31836 13.7412 8.31836C13.126 8.31836 12.5547 8.37109 12.0273 8.47656C11.5176 8.58203 11.1396 8.73145 10.8936 8.9248C10.5947 9.7334 10.3574 10.6035 10.1816 11.5352C10.0059 12.4668 9.91797 13.3984 9.91797 14.3301C9.91797 15.4727 10.041 16.4834 10.2871 17.3623C10.9551 17.5029 11.6143 17.5732 12.2646 17.5732Z" fill="url(#paint0_linear_334_1320)"/>
<defs>
<linearGradient id="paint0_linear_334_1320" x1="-2" y1="11.3105" x2="31" y2="11.3105" gradientUnits="userSpaceOnUse">
<stop stop-color="#D34FFF"/>
<stop offset="0.1" stop-color="#41D6FF"/>
</linearGradient>
</defs>
</svg>
