<svg width="28" height="52" viewBox="0 0 28 52" fill="none" xmlns="http://www.w3.org/2000/svg">
<path d="M13.228 45.5891C9.052 45.5891 5.965 44.8151 3.967 43.2671C1.969 41.7011 0.97 39.6131 0.97 37.0031C0.97 34.8431 1.519 33.0521 2.617 31.6301C3.733 30.1901 5.164 29.1191 6.91 28.4171C7.18 28.3091 7.315 28.1561 7.315 27.9581C7.333 27.7601 7.216 27.6251 6.964 27.5531C4.804 26.7611 3.121 25.5191 1.915 23.8271C0.709 22.1351 0.106 20.0111 0.106 17.4551C0.106 15.3671 0.637 13.5041 1.699 11.8661C2.779 10.21 4.318 8.91405 6.316 7.97805C8.314 7.02405 10.708 6.54705 13.498 6.54705C17.746 6.54705 21.094 7.49205 23.542 9.38205C25.99 11.2721 27.214 14.0171 27.214 17.6171C27.214 20.0651 26.674 22.0991 25.594 23.7191C24.514 25.3211 23.146 26.5451 21.49 27.3911C21.256 27.5171 21.139 27.6881 21.139 27.9041C21.139 28.1021 21.256 28.2731 21.49 28.4171C22.732 29.0831 23.668 30.0371 24.298 31.2791C24.946 32.5031 25.27 33.9251 25.27 35.5451C25.27 37.5791 24.829 39.3521 23.947 40.8641C23.083 42.3581 21.76 43.5191 19.978 44.3471C18.196 45.1751 15.946 45.5891 13.228 45.5891ZM14.389 30.8471C12.643 30.8471 11.104 31.0901 9.772 31.5761C8.44 32.0441 7.396 32.7101 6.64 33.5741C5.884 34.4201 5.506 35.4191 5.506 36.5711C5.506 37.7771 5.821 38.7761 6.451 39.5681C7.099 40.3421 8.017 40.9181 9.205 41.2961C10.411 41.6741 11.86 41.8631 13.552 41.8631C15.208 41.8631 16.576 41.6111 17.656 41.1071C18.754 40.6031 19.555 39.9191 20.059 39.0551C20.581 38.1911 20.842 37.2191 20.842 36.1391C20.842 34.5731 20.329 33.3041 19.303 32.3321C18.277 31.3421 16.639 30.8471 14.389 30.8471ZM13.066 10.273C11.302 10.273 9.79 10.5251 8.53 11.0291C7.27 11.5331 6.307 12.3071 5.641 13.3511C4.975 14.3771 4.642 15.6911 4.642 17.2931C4.642 19.0211 5.029 20.2721 5.803 21.0461C6.595 21.8201 7.666 22.2071 9.016 22.2071C10.654 22.2071 12.166 21.8291 13.552 21.0731C14.938 20.2991 16.045 19.2911 16.873 18.0491C17.719 16.7891 18.142 15.4391 18.142 13.999C18.142 12.667 17.674 11.7131 16.738 11.1371C15.802 10.5611 14.578 10.273 13.066 10.273ZM17.764 8.38305C17.818 8.29305 17.872 8.22105 17.926 8.16705C17.998 8.09505 18.061 8.02305 18.115 7.95105C18.421 7.48305 18.844 7.31205 19.384 7.43805C19.924 7.54605 20.356 7.78905 20.68 8.16705C20.878 8.40105 21.004 8.66205 21.058 8.95005C21.112 9.23805 21.04 9.53505 20.842 9.84105C20.788 9.91305 20.734 9.99405 20.68 10.0841C20.626 10.1561 20.572 10.2371 20.518 10.3271C20.338 10.5971 20.068 10.7231 19.708 10.7051C19.348 10.6691 19.006 10.5431 18.682 10.3271C18.286 10.1111 17.971 9.81405 17.737 9.43605C17.521 9.05805 17.53 8.70705 17.764 8.38305ZM5.236 10.9751C5.218 10.8851 5.191 10.8041 5.155 10.7321C5.137 10.6421 5.11 10.5611 5.074 10.4891C4.894 9.89505 4.984 9.38205 5.344 8.95005C5.704 8.50005 6.136 8.22105 6.64 8.11305C7.054 8.02305 7.459 8.05905 7.855 8.22105C8.251 8.36505 8.53 8.67105 8.692 9.13905C8.728 9.24705 8.764 9.34605 8.8 9.43605C8.854 9.52605 8.89 9.62505 8.908 9.73305C9.016 10.003 8.872 10.2911 8.476 10.5971C8.098 10.9031 7.666 11.1371 7.18 11.2991C6.748 11.4251 6.343 11.4791 5.965 11.4611C5.587 11.4251 5.344 11.2631 5.236 10.9751ZM22.732 16.753C23.272 16.753 23.704 16.5551 24.028 16.1591C24.352 15.7451 24.514 15.2591 24.514 14.7011C24.514 14.1611 24.352 13.6931 24.028 13.2971C23.704 12.9011 23.272 12.7031 22.732 12.7031C22.174 12.7031 21.652 12.9011 21.166 13.2971C20.698 13.6931 20.464 14.1611 20.464 14.7011C20.464 15.2591 20.698 15.7451 21.166 16.1591C21.652 16.5551 22.174 16.753 22.732 16.753ZM20.734 23.6651C21.364 23.6651 21.931 23.4401 22.435 22.9901C22.957 22.5221 23.218 21.9551 23.218 21.2891C23.218 20.6051 23.02 20.0741 22.624 19.6961C22.246 19.3181 21.742 19.1291 21.112 19.1291C20.5 19.1291 19.942 19.3811 19.438 19.8851C18.934 20.3711 18.682 20.9291 18.682 21.5591C18.682 22.1711 18.871 22.6751 19.249 23.0711C19.627 23.4671 20.122 23.6651 20.734 23.6651ZM15.388 26.3651C15.91 26.3651 16.333 26.1581 16.657 25.7441C16.999 25.3301 17.17 24.8531 17.17 24.3131C17.17 23.7911 16.999 23.3681 16.657 23.0441C16.333 22.7021 15.91 22.5311 15.388 22.5311C14.848 22.5311 14.371 22.7021 13.957 23.0441C13.543 23.3681 13.336 23.7911 13.336 24.3131C13.336 24.8531 13.543 25.3301 13.957 25.7441C14.371 26.1581 14.848 26.3651 15.388 26.3651ZM10.852 12.5411C10.834 11.7491 10.816 10.8401 10.798 9.81405C10.798 8.78805 10.798 7.77105 10.798 6.76305C10.798 5.75505 10.798 4.89105 10.798 4.17105C10.798 2.92905 10.96 1.96605 11.284 1.28205C11.608 0.58005 12.13 0.22905 12.85 0.22905C13.552 0.22905 14.056 0.54405 14.362 1.17405C14.686 1.78605 14.848 2.65905 14.848 3.79305C14.848 5.05305 14.821 6.50205 14.767 8.14005C14.731 9.77805 14.686 11.2631 14.632 12.5951C14.578 13.4051 14.434 14.1071 14.2 14.7011C13.966 15.2771 13.48 15.5651 12.742 15.5651C12.094 15.5651 11.626 15.2951 11.338 14.755C11.05 14.2151 10.888 13.4771 10.852 12.5411ZM22.246 45.7511C22.03 45.5531 21.823 45.3641 21.625 45.1841C21.427 45.0041 21.238 44.8241 21.058 44.6441C20.878 44.4461 20.698 44.2391 20.518 44.0231C20.086 43.5011 19.762 42.9881 19.546 42.4841C19.348 41.9801 19.474 41.5031 19.924 41.0531C20.356 40.6211 20.824 40.4501 21.328 40.5401C21.85 40.6301 22.39 40.9451 22.948 41.4851C23.182 41.7011 23.389 41.9081 23.569 42.1061C23.749 42.2861 23.929 42.4841 24.109 42.7001C24.289 42.8981 24.496 43.1411 24.73 43.4291C25.216 43.9871 25.612 44.6081 25.918 45.2921C26.242 45.9761 26.17 46.5071 25.702 46.8851C25.306 47.2631 24.793 47.3081 24.163 47.0201C23.533 46.7321 22.894 46.3091 22.246 45.7511ZM13.876 43.2131L17.224 42.4031C17.944 44.6711 18.412 46.4171 18.628 47.6411C18.862 48.8651 18.889 49.7291 18.709 50.2331C18.529 50.7371 18.196 51.0431 17.71 51.1511C17.134 51.2771 16.648 51.1511 16.252 50.7731C15.856 50.3951 15.478 49.6121 15.118 48.4241C14.758 47.2541 14.344 45.5171 13.876 43.2131ZM8.314 42.7811L11.23 43.9151C10.51 45.8411 9.871 47.3081 9.313 48.3161C8.773 49.3241 8.269 49.9811 7.801 50.2871C7.351 50.6111 6.892 50.6831 6.424 50.5031C5.902 50.3051 5.578 49.9541 5.452 49.4501C5.344 48.9461 5.506 48.1631 5.938 47.1011C6.388 46.0571 7.18 44.6171 8.314 42.7811ZM11.122 41.9711C11.104 41.5391 11.086 41.1161 11.068 40.7021C11.068 40.2881 11.068 39.8291 11.068 39.3251C11.068 38.2991 11.203 37.5341 11.473 37.0301C11.743 36.5081 12.202 36.2471 12.85 36.2471C13.48 36.2471 13.93 36.4901 14.2 36.9761C14.488 37.4441 14.632 38.1551 14.632 39.1091C14.632 39.6131 14.605 40.1171 14.551 40.6211C14.515 41.1251 14.47 41.6471 14.416 42.1871C14.344 42.9071 14.2 43.4651 13.984 43.8611C13.768 44.2571 13.372 44.4551 12.796 44.4551C12.184 44.4551 11.761 44.2301 11.527 43.7801C11.293 43.3301 11.158 42.7271 11.122 41.9711Z" fill="url(#paint0_linear_333_1298)"/>
<defs>
<linearGradient id="paint0_linear_333_1298" x1="-2" y1="25.7791" x2="29" y2="25.7791" gradientUnits="userSpaceOnUse">
<stop stop-color="#2EFF5B"/>
<stop offset="0.2" stop-color="#FFE625"/>
</linearGradient>
</defs>
</svg>
