<svg width="29" height="43" viewBox="0 0 29 43" fill="none" xmlns="http://www.w3.org/2000/svg">
<path d="M6.83301 21.469C5.93652 20.9065 5.04883 20.1682 4.16992 19.2542C3.29102 18.3401 2.55273 17.2854 1.95508 16.0901C1.375 14.8948 1.08496 13.6467 1.08496 12.3459C1.08496 9.74438 1.66504 7.59106 2.8252 5.88599C3.98535 4.18091 5.54102 2.92407 7.49219 2.11548C9.46094 1.30688 11.667 0.902588 14.1104 0.902588C18.2236 0.902588 21.4053 1.74634 23.6553 3.43384C25.9053 5.10376 27.0303 7.62622 27.0303 11.0012C27.0303 13.0051 26.4238 14.7805 25.2109 16.3274C23.998 17.8743 22.5566 19.1663 20.8867 20.2034C23.1367 21.3635 24.8857 22.8225 26.1338 24.5803C27.3994 26.3381 28.0322 28.2454 28.0322 30.302C28.0322 32.6926 27.4434 34.7932 26.2656 36.6038C25.1055 38.4143 23.4707 39.8206 21.3613 40.8225C19.2695 41.8069 16.8789 42.2991 14.1895 42.2991C11.6934 42.2991 9.36426 41.8508 7.20215 40.9543C5.05762 40.0579 3.32617 38.7483 2.00781 37.0256C0.707031 35.2854 0.0566406 33.2112 0.0566406 30.803C0.0566406 29.2561 0.373047 27.9114 1.00586 26.7688C1.63867 25.6262 2.41211 24.677 3.32617 23.9211C4.24023 23.1653 5.40918 22.3479 6.83301 21.469ZM18.1709 10.5002C18.1709 9.95532 18.1357 9.49829 18.0654 9.12915C17.626 8.77759 17.0723 8.51392 16.4043 8.33813C15.7539 8.16235 15.0508 8.07446 14.2949 8.07446C13.6797 8.07446 13.082 8.13599 12.502 8.25903C11.9395 8.3645 11.4385 8.52271 10.999 8.73364C10.8408 8.96216 10.709 9.4895 10.6035 10.3157C10.5156 11.1243 10.4717 11.8186 10.4717 12.3987C10.9111 13.2249 11.667 14.0686 12.7393 14.9299C13.8115 15.7737 14.998 16.5559 16.2988 17.2766C16.791 16.5911 17.2217 15.554 17.5908 14.1653C17.9775 12.7766 18.1709 11.5549 18.1709 10.5002ZM14.1631 35.4436C15.8682 35.4436 17.1953 35.0657 18.1445 34.3098C18.3027 34.011 18.4258 33.4309 18.5137 32.5696C18.6016 31.7083 18.6455 31.0051 18.6455 30.4602C18.0654 29.634 17.1338 28.7639 15.8506 27.8499C14.5674 26.9182 13.1611 26.092 11.6318 25.3713C10.8584 25.8459 10.1729 26.4963 9.5752 27.3225C8.97754 28.1487 8.52051 29.054 8.2041 30.0383C8.27441 30.9348 8.5293 31.8577 8.96875 32.8069C9.42578 33.7561 9.9707 34.4504 10.6035 34.8899C11.7109 35.259 12.8975 35.4436 14.1631 35.4436Z" fill="url(#paint0_linear_334_1319)"/>
<defs>
<linearGradient id="paint0_linear_334_1319" x1="-2" y1="21.7717" x2="30" y2="21.7717" gradientUnits="userSpaceOnUse">
<stop stop-color="#D34FFF"/>
<stop offset="0.2" stop-color="#41D6FF"/>
</linearGradient>
</defs>
</svg>
