<svg width="28" height="41" viewBox="0 0 28 41" fill="none" xmlns="http://www.w3.org/2000/svg">
<path d="M3.61426 28.729C5.77637 30.0649 7.7627 31.0142 9.57324 31.5767C11.4014 32.1216 13.0361 32.394 14.4775 32.394C15.4092 32.394 16.1562 32.2183 16.7188 31.8667C16.9473 31.5327 17.1143 31.1108 17.2197 30.6011C17.3428 30.0913 17.4131 29.5552 17.4307 28.9927C17.4307 28.4302 17.4043 27.9644 17.3516 27.5952C17.0176 27.0679 16.376 26.4878 15.4268 25.855C14.4951 25.2222 13.3613 24.5894 12.0254 23.9565C11.4805 24.396 10.8652 24.7739 10.1797 25.0903C9.51172 25.4067 8.84375 25.6353 8.17578 25.7759C7.5957 25.5825 7.04199 25.2397 6.51465 24.7476C5.9873 24.2378 5.55664 23.6226 5.22266 22.9019C4.90625 22.1812 4.74805 21.4429 4.74805 20.687C4.74805 19.7905 5.00293 18.938 5.5127 18.1294C6.02246 17.3208 6.81348 16.6177 7.88574 16.02C8.3252 16.02 8.87891 16.1255 9.54688 16.3364C10.2148 16.5474 10.8389 16.8462 11.4189 17.2329L12.4209 11.2739L2.34863 12.9878C1.68066 12.2319 1.14453 11.4585 0.740234 10.6675C0.353516 9.85889 0.160156 8.86572 0.160156 7.68799C0.160156 6.31689 0.423828 5.11279 0.951172 4.07568C1.47852 3.03857 2.19043 2.23877 3.08691 1.67627C4.00098 1.11377 5.02051 0.83252 6.14551 0.83252C7.63965 0.83252 9.23047 1.1665 10.918 1.83447C12.6055 2.48486 14.1699 3.31104 15.6113 4.31299C16.0508 3.83838 16.7275 3.3374 17.6416 2.81006C18.5557 2.26514 19.54 1.80811 20.5947 1.43896C21.6494 1.06982 22.5986 0.867676 23.4424 0.83252C24.5146 1.28955 25.3496 2.18604 25.9473 3.52197C26.5449 4.85791 26.8438 6.37842 26.8438 8.0835C26.8438 9.3667 26.668 10.5356 26.3164 11.5903C25.7012 11.9946 24.8047 12.1968 23.627 12.1968C22.9062 12.1968 22.1152 12.1353 21.2539 12.0122C20.7617 12.856 20.0762 13.8843 19.1973 15.0972C18.3359 16.3101 17.3516 17.5581 16.2441 18.8413C16.4023 18.8237 16.6484 18.8149 16.9824 18.8149C18.7227 18.8149 20.375 19.1753 21.9395 19.896C23.5215 20.5991 24.7871 21.5835 25.7363 22.8491C26.6855 24.0972 27.1426 25.5034 27.1074 27.0679C27.0371 29.7573 26.2813 32.104 24.8398 34.1079C23.3984 36.1294 21.5 37.6763 19.1445 38.7485C16.8066 39.8384 14.2666 40.3833 11.5244 40.3833C8.7998 40.3833 6.33887 39.9351 4.1416 39.0386C1.94434 38.1421 0.608398 36.4985 0.133789 34.1079C0.485352 32.9653 0.959961 31.9019 1.55762 30.9175C2.15527 29.9331 2.84082 29.2036 3.61426 28.729Z" fill="url(#paint0_linear_334_1314)"/>
<defs>
<linearGradient id="paint0_linear_334_1314" x1="-1" y1="12.0776" x2="30" y2="12.0776" gradientUnits="userSpaceOnUse">
<stop stop-color="#D34FFF"/>
<stop offset="0.7" stop-color="#41D6FF"/>
</linearGradient>
</defs>
</svg>
