<svg width="25" height="40" viewBox="0 0 25 40" fill="none" xmlns="http://www.w3.org/2000/svg">
<path d="M11.016 39.7277C9 39.7277 7.299 39.5657 5.913 39.2417C4.527 38.9177 3.474 38.4407 2.754 37.8107C2.034 37.1627 1.674 36.3617 1.674 35.4077C1.674 34.5617 1.935 33.8597 2.457 33.3017C2.979 32.7257 3.78 32.4377 4.86 32.4377C5.328 32.4377 5.787 32.4827 6.237 32.5727C6.687 32.6627 7.119 32.7797 7.533 32.9237C7.965 33.0677 8.397 33.2297 8.829 33.4097C9.261 33.5897 9.702 33.7697 10.152 33.9497C10.908 34.2377 11.709 34.4987 12.555 34.7327C13.419 34.9667 14.346 35.0837 15.336 35.0837C16.452 35.0837 17.298 34.8047 17.874 34.2467C18.45 33.6887 18.738 32.9777 18.738 32.1137C18.738 31.2137 18.522 30.4487 18.09 29.8187C17.676 29.1707 16.884 28.6397 15.714 28.2257C14.562 27.7937 12.888 27.4787 10.692 27.2807C9.378 27.1547 8.415 26.7947 7.803 26.2007C7.209 25.5887 6.912 24.8777 6.912 24.0677C6.912 23.3477 7.029 22.6547 7.263 21.9887C7.515 21.3047 7.884 20.5937 8.37 19.8557C8.874 19.1177 9.504 18.2807 10.26 17.3447C11.826 15.4007 12.915 14.0057 13.527 13.1597C14.157 12.3137 14.472 11.6657 14.472 11.2157C14.472 10.7837 14.283 10.4687 13.905 10.2707C13.545 10.0547 13.014 10.0457 12.312 10.2437C11.7 10.4057 11.025 10.5767 10.287 10.7567C9.567 10.9367 8.892 11.1077 8.262 11.2697C6.606 11.7017 5.229 11.7017 4.131 11.2697C3.033 10.8377 2.205 10.1627 1.647 9.24471C1.107 8.30871 0.837 7.31871 0.837 6.27471C0.837 5.32071 1.062 4.42071 1.512 3.57471C1.962 2.71071 2.628 2.03571 3.51 1.54971C4.41 1.04571 5.526 0.865709 6.858 1.00971C7.02 1.02771 7.164 1.04571 7.29 1.06371C7.434 1.06371 7.614 1.08171 7.83 1.11771C7.002 3.40371 6.588 5.04171 6.588 6.03171C6.588 7.00371 6.948 7.54371 7.668 7.65171C8.424 7.75971 9.027 7.36371 9.477 6.46371C9.945 5.54571 10.476 3.88971 11.07 1.49571C11.538 1.53171 12.015 1.57671 12.501 1.63071C12.987 1.68471 13.464 1.74771 13.932 1.81971C13.914 3.09771 13.95 4.10571 14.04 4.84371C14.13 5.58171 14.301 6.11271 14.553 6.43671C14.805 6.76071 15.174 6.93171 15.66 6.94971C16.11 6.96771 16.47 6.83271 16.74 6.54471C17.01 6.23871 17.181 5.73471 17.253 5.03271C17.325 4.33071 17.28 3.36771 17.118 2.14371C17.55 2.17971 17.982 2.22471 18.414 2.27871C18.846 2.31471 19.278 2.35971 19.71 2.41371C21.096 2.59371 22.104 3.00771 22.734 3.65571C23.382 4.28571 23.706 5.05071 23.706 5.95071C23.706 6.58071 23.553 7.23771 23.247 7.92171C22.941 8.58771 22.5 9.25371 21.924 9.91971C21.096 10.8737 20.277 11.8007 19.467 12.7007C18.657 13.6007 17.838 14.5277 17.01 15.4817C16.83 15.6977 16.668 15.9047 16.524 16.1027C16.38 16.2827 16.308 16.4717 16.308 16.6697C16.308 16.9217 16.506 17.1197 16.902 17.2637C17.316 17.3897 17.838 17.5337 18.468 17.6957C19.098 17.8397 19.773 18.0827 20.493 18.4247C21.213 18.7667 21.888 19.2797 22.518 19.9637C23.148 20.6297 23.661 21.5477 24.057 22.7177C24.471 23.8697 24.678 25.3457 24.678 27.1457C24.678 29.7377 24.129 31.9787 23.031 33.8687C21.951 35.7407 20.385 37.1897 18.333 38.2157C16.299 39.2237 13.86 39.7277 11.016 39.7277ZM19.035 25.2557C19.665 25.2557 20.169 25.0757 20.547 24.7157C20.925 24.3377 21.114 23.8157 21.114 23.1497C21.114 22.5197 20.889 21.9797 20.439 21.5297C20.007 21.0617 19.422 20.8277 18.684 20.8277C17.964 20.8277 17.415 21.0437 17.037 21.4757C16.659 21.8897 16.47 22.4117 16.47 23.0417C16.47 23.6537 16.722 24.1757 17.226 24.6077C17.73 25.0397 18.333 25.2557 19.035 25.2557ZM12.258 24.8237C12.744 24.8237 13.185 24.6617 13.581 24.3377C13.995 23.9957 14.202 23.5277 14.202 22.9337C14.202 22.3577 13.995 21.8357 13.581 21.3677C13.167 20.8997 12.672 20.6657 12.096 20.6657C11.556 20.6657 11.079 20.8817 10.665 21.3137C10.251 21.7457 10.044 22.2317 10.044 22.7717C10.044 23.3657 10.242 23.8607 10.638 24.2567C11.052 24.6347 11.592 24.8237 12.258 24.8237ZM3.267 30.2777C2.493 30.2777 1.818 29.9987 1.242 29.4407C0.684 28.8827 0.405 28.1357 0.405 27.1997C0.405 26.4617 0.657 25.8857 1.161 25.4717C1.665 25.0577 2.277 24.8507 2.997 24.8507C3.789 24.8507 4.482 25.1297 5.076 25.6877C5.688 26.2457 5.994 26.9117 5.994 27.6857C5.994 28.4417 5.724 29.0627 5.184 29.5487C4.644 30.0347 4.005 30.2777 3.267 30.2777Z" fill="url(#paint0_linear_333_1293)"/>
<defs>
<linearGradient id="paint0_linear_333_1293" x1="0" y1="20.0797" x2="27" y2="20.0797" gradientUnits="userSpaceOnUse">
<stop stop-color="#2EFF5B"/>
<stop offset="0.7" stop-color="#FFE625"/>
</linearGradient>
</defs>
</svg>
