<svg width="29" height="33" viewBox="0 0 29 33" fill="none" xmlns="http://www.w3.org/2000/svg">
<path d="M0.922852 25.3425C0.922852 24.0593 1.23926 22.864 1.87207 21.7566C2.52246 20.6316 3.5332 19.6736 4.9043 18.8826C5.27344 18.8826 5.93262 19.0144 6.88184 19.2781C7.83105 19.5417 8.38477 19.7 8.54297 19.7527C8.78906 19.8582 9.04395 19.9373 9.30762 19.99C9.99316 19.4099 10.749 18.6365 11.5752 17.6697C12.4189 16.6853 13.1748 15.6658 13.8428 14.6111C14.5107 13.5388 14.959 12.5896 15.1875 11.7634C15.1172 11.4119 15.0293 11.1042 14.9238 10.8406C14.8359 10.5769 14.6689 10.3396 14.4229 10.1287C13.7373 9.98804 12.999 9.91772 12.208 9.91772C10.1338 9.91772 7.50586 10.6296 4.32422 12.0535C3.58594 11.1921 2.9707 10.1287 2.47852 8.86304C2.00391 7.57983 1.7666 6.2439 1.7666 4.85522C1.7666 4.53882 1.77539 4.30151 1.79297 4.14331C2.51367 3.42261 3.75293 2.60522 5.51074 1.69116C7.28613 0.759521 9.7207 0.293701 12.8145 0.293701C16.6113 0.293701 19.7754 0.970459 22.3066 2.32397C24.8379 3.65991 26.1035 5.86597 26.1035 8.94214C26.1035 11.1394 25.418 13.0994 24.0469 14.822C22.6934 16.5447 21.2607 17.8982 19.749 18.8826C18.2373 19.8669 16.5586 20.8337 14.7129 21.783V22.1785L21.1729 22.9167L22.7549 19.9636L27.0791 20.3064C27.4307 21.2029 27.7031 22.0466 27.8965 22.8376C28.1074 23.6287 28.2129 24.4373 28.2129 25.2634C28.2129 26.4939 27.9404 27.6277 27.3955 28.6648C26.8506 29.7019 26.0947 30.5281 25.1279 31.1433C24.1787 31.7585 23.124 32.0662 21.9639 32.0662C20.2764 32.0662 18.5361 31.6267 16.7432 30.7478C14.9502 29.8513 13.2188 28.7087 11.5488 27.3201C10.7578 28.6912 9.84375 29.7546 8.80664 30.5105C7.76953 31.2664 6.47754 31.697 4.93066 31.8025C4.13965 31.5916 3.43652 31.1697 2.82129 30.5369C2.22363 29.9041 1.75781 29.1394 1.42383 28.2429C1.08984 27.3289 0.922852 26.3621 0.922852 25.3425Z" fill="url(#paint0_linear_334_1313)"/>
<defs>
<linearGradient id="paint0_linear_334_1313" x1="0" y1="11.5388" x2="30" y2="11.5388" gradientUnits="userSpaceOnUse">
<stop stop-color="#D34FFF"/>
<stop offset="0.8" stop-color="#41D6FF"/>
</linearGradient>
</defs>
</svg>
