<svg width="26" height="47" viewBox="0 0 26 47" fill="none" xmlns="http://www.w3.org/2000/svg">
<path d="M18.467 17.5078C18.467 16.1218 18.224 14.8888 17.738 13.8088C17.252 12.7288 16.496 11.8828 15.47 11.2708C14.462 10.6408 13.157 10.3258 11.555 10.3258C9.539 10.3258 7.946 10.8478 6.776 11.8918C5.606 12.9358 5.021 14.2858 5.021 15.9418C5.021 17.0218 5.291 17.9128 5.831 18.6148C6.371 19.3168 7.127 19.6678 8.099 19.6678C8.909 19.6678 9.503 19.4788 9.881 19.1008C10.277 18.7048 10.475 18.2098 10.475 17.6158C10.475 17.3638 10.439 17.1388 10.367 16.9408C10.313 16.7428 10.241 16.5538 10.151 16.3738C10.061 16.1758 9.98 15.9778 9.908 15.7798C9.854 15.5638 9.827 15.3298 9.827 15.0778C9.827 14.5558 9.998 14.1328 10.34 13.8088C10.7 13.4668 11.159 13.2958 11.717 13.2958C12.581 13.2958 13.283 13.6738 13.823 14.4298C14.363 15.1678 14.633 16.1758 14.633 17.4538C14.633 19.3978 13.994 20.8468 12.716 21.8008C11.456 22.7548 9.935 23.2318 8.153 23.2318C5.669 23.2318 3.815 22.4578 2.591 20.9098C1.367 19.3438 0.755 17.2558 0.755 14.6458C0.755 11.6218 1.268 9.06579 2.294 6.97779C3.338 4.88979 4.796 3.30579 6.668 2.22579C8.558 1.14579 10.763 0.605794 13.283 0.605794C15.893 0.605794 18.071 1.16379 19.817 2.27979C21.563 3.37779 22.868 4.94379 23.732 6.97779C24.614 8.99379 25.055 11.3698 25.055 14.1058C25.055 16.4458 24.695 18.6148 23.975 20.6128C23.255 22.6108 22.175 24.3298 20.735 25.7698C19.457 27.0658 18.107 28.0738 16.685 28.7938C15.263 29.4958 13.886 30.0538 12.554 30.4678C11.222 30.8638 10.043 31.2238 9.017 31.5478C7.991 31.8538 7.217 32.2678 6.695 32.7898C6.371 33.1138 6.209 33.4918 6.209 33.9238C6.209 34.2478 6.326 34.5448 6.56 34.8148C6.794 35.0668 7.163 35.2198 7.667 35.2738C7.973 35.2918 8.261 35.3278 8.531 35.3818C8.819 35.4178 9.107 35.4538 9.395 35.4898C9.575 35.5078 9.746 35.5258 9.908 35.5438C10.088 35.5618 10.259 35.5798 10.421 35.5978C10.601 35.6158 10.781 35.6338 10.961 35.6518C11.213 35.6698 11.465 35.6968 11.717 35.7328C11.987 35.7508 12.239 35.7778 12.473 35.8138C12.779 35.8318 13.085 35.8678 13.391 35.9218C13.715 35.9578 14.021 35.9938 14.309 36.0298C14.579 36.0478 14.858 36.0748 15.146 36.1108C15.434 36.1288 15.713 36.1558 15.983 36.1918C17.873 36.3898 19.547 36.5428 21.005 36.6508C22.463 36.7588 23.597 36.9838 24.407 37.3258C25.235 37.6678 25.649 38.2798 25.649 39.1618C25.649 39.6658 25.469 40.0978 25.109 40.4578C24.983 40.5838 24.812 40.6918 24.596 40.7818C24.398 40.8898 24.164 40.9708 23.894 41.0248C23.642 41.0788 23.354 41.1148 23.03 41.1328C22.724 41.1688 22.382 41.1868 22.004 41.1868C20.348 41.1868 18.476 41.1058 16.388 40.9438C14.318 40.7998 12.266 40.5748 10.232 40.2688C8.216 39.9628 6.434 39.5938 4.886 39.1618C3.356 38.7118 2.303 38.1898 1.727 37.5958C1.313 37.1818 1.007 36.7138 0.809 36.1918C0.629 35.6518 0.539 35.0398 0.539 34.3558C0.539 33.6178 0.674 32.9338 0.944 32.3038C1.232 31.6738 1.619 31.1158 2.105 30.6298C2.861 29.8738 3.833 29.2798 5.021 28.8478C6.227 28.4158 7.505 28.0198 8.855 27.6598C10.223 27.2818 11.537 26.8408 12.797 26.3368C14.075 25.8328 15.155 25.1398 16.037 24.2578C17.009 23.2858 17.657 22.1968 17.981 20.9908C18.305 19.7668 18.467 18.6058 18.467 17.5078ZM13.985 2.54979H11.015C11.069 2.18979 11.15 1.88379 11.258 1.63179C11.384 1.37979 11.546 1.19079 11.744 1.06479C11.942 0.938794 12.203 0.875794 12.527 0.875794C12.941 0.875794 13.274 1.01979 13.526 1.30779C13.778 1.59579 13.931 2.00979 13.985 2.54979ZM8.207 3.14379L5.993 5.14179C5.795 4.83579 5.651 4.55679 5.561 4.30479C5.489 4.03479 5.48 3.78279 5.534 3.54879C5.606 3.31479 5.759 3.08979 5.993 2.87379C6.299 2.60379 6.641 2.48679 7.019 2.52279C7.415 2.55879 7.811 2.76579 8.207 3.14379ZM4.589 8.05779L4.157 9.13779C3.977 9.04779 3.851 8.93979 3.779 8.81379C3.725 8.68779 3.725 8.54379 3.779 8.38179C3.833 8.18379 3.923 8.06679 4.049 8.03079C4.193 7.99479 4.373 8.00379 4.589 8.05779ZM13.499 46.5598C12.689 46.5598 12.203 46.2448 12.041 45.6148C11.879 44.9848 11.861 44.1478 11.987 43.1038C12.077 42.5098 12.149 41.9878 12.203 41.5378C12.257 41.0878 12.311 40.6378 12.365 40.1878C12.617 38.8558 12.932 37.9918 13.31 37.5958C13.688 37.1998 14.201 37.0018 14.849 37.0018C15.425 37.0018 15.83 37.2808 16.064 37.8388C16.298 38.3788 16.361 39.2338 16.253 40.4038C16.199 40.8898 16.136 41.3668 16.064 41.8348C16.01 42.3028 15.929 42.8338 15.821 43.4278C15.659 44.5618 15.398 45.3628 15.038 45.8308C14.696 46.3168 14.183 46.5598 13.499 46.5598ZM6.965 44.3998C6.101 44.3998 5.597 44.0668 5.453 43.4008C5.309 42.7528 5.363 41.8888 5.615 40.8088C5.885 39.7468 6.191 38.6038 6.533 37.3798L10.205 38.6218C9.521 40.5838 8.972 42.0328 8.558 42.9688C8.144 43.9228 7.613 44.3998 6.965 44.3998ZM20.951 46.7218C19.925 46.7218 19.304 46.0828 19.088 44.8048C18.89 43.5448 18.827 41.7718 18.899 39.4858L22.787 39.5398C22.823 41.0518 22.796 42.3388 22.706 43.4008C22.634 44.4808 22.454 45.2998 22.166 45.8578C21.896 46.4338 21.491 46.7218 20.951 46.7218ZM8.693 4.49379C8.153 4.49379 7.703 4.69179 7.343 5.08779C6.983 5.48379 6.803 5.95179 6.803 6.49179C6.803 7.04979 6.983 7.49979 7.343 7.84179C7.703 8.16579 8.153 8.32779 8.693 8.32779C9.269 8.32779 9.755 8.16579 10.151 7.84179C10.547 7.49979 10.745 7.04979 10.745 6.49179C10.745 5.95179 10.547 5.48379 10.151 5.08779C9.755 4.69179 9.269 4.49379 8.693 4.49379ZM14.903 4.00779C14.201 4.00779 13.616 4.17879 13.148 4.52079C12.698 4.86279 12.473 5.35779 12.473 6.00579C12.473 6.70779 12.671 7.25679 13.067 7.65279C13.481 8.03079 13.985 8.21979 14.579 8.21979C15.317 8.21979 15.884 8.07579 16.28 7.78779C16.694 7.48179 16.901 6.97779 16.901 6.27579C16.901 5.51979 16.712 4.95279 16.334 4.57479C15.956 4.19679 15.479 4.00779 14.903 4.00779ZM20.087 7.13979C19.583 7.13979 19.115 7.32879 18.683 7.70679C18.251 8.06679 18.035 8.50779 18.035 9.0298C18.035 9.56979 18.26 10.0018 18.71 10.3258C19.16 10.6498 19.637 10.8118 20.141 10.8118C20.681 10.8118 21.104 10.6498 21.41 10.3258C21.716 10.0018 21.869 9.56979 21.869 9.0298C21.869 8.50779 21.707 8.06679 21.383 7.70679C21.059 7.32879 20.627 7.13979 20.087 7.13979Z" fill="url(#paint0_linear_333_1292)"/>
<defs>
<linearGradient id="paint0_linear_333_1292" x1="-1" y1="20.5398" x2="27" y2="20.5398" gradientUnits="userSpaceOnUse">
<stop stop-color="#2EFF5B"/>
<stop offset="0.8" stop-color="#FFE625"/>
</linearGradient>
</defs>
</svg>
