<svg width="32" height="39" viewBox="0 0 32 39" fill="none" xmlns="http://www.w3.org/2000/svg">
<path d="M18.036 17.2076C18.108 16.3076 18.351 15.6506 18.765 15.2366C19.197 14.8046 19.665 14.5886 20.169 14.5886C20.655 14.5886 21.096 14.7956 21.492 15.2096C21.888 15.6056 22.086 16.1996 22.086 16.9916C22.104 19.0256 22.095 21.0686 22.059 23.1206C22.023 25.1546 22.014 27.1976 22.032 29.2496C22.032 30.2216 22.176 30.9326 22.464 31.3826C22.77 31.8146 23.184 32.1656 23.706 32.4356C24.174 32.6696 24.651 32.8856 25.137 33.0836C25.623 33.2636 26.1 33.4796 26.568 33.7316C27.144 34.0196 27.585 34.3976 27.891 34.8656C28.197 35.3156 28.35 35.7746 28.35 36.2426C28.35 36.7826 28.152 37.2506 27.756 37.6466C27.36 38.0606 26.766 38.2676 25.974 38.2676C25.524 38.2676 25.074 38.2676 24.624 38.2676C24.174 38.2676 23.724 38.2676 23.274 38.2676C23.094 38.2676 22.914 38.2676 22.734 38.2676C22.554 38.2676 22.374 38.2676 22.194 38.2676C22.014 38.2676 21.834 38.2676 21.654 38.2676C21.384 38.2676 21.114 38.2676 20.844 38.2676C20.574 38.2676 20.304 38.2676 20.034 38.2676C19.548 38.2676 19.062 38.2676 18.576 38.2676C18.09 38.2676 17.604 38.2676 17.118 38.2676C16.902 38.2676 16.686 38.2676 16.47 38.2676C16.272 38.2676 16.065 38.2676 15.849 38.2676C15.651 38.2676 15.444 38.2676 15.228 38.2676C14.958 38.2676 14.688 38.2676 14.418 38.2676C14.148 38.2676 13.878 38.2676 13.608 38.2676C13.104 38.2676 12.609 38.2676 12.123 38.2676C11.637 38.2676 11.142 38.2676 10.638 38.2676C9.99 38.2676 9.495 38.0786 9.153 37.7006C8.829 37.3226 8.667 36.8906 8.667 36.4046C8.667 35.9546 8.802 35.5226 9.072 35.1086C9.36 34.6946 9.792 34.3796 10.368 34.1636C11.052 33.9116 11.727 33.6866 12.393 33.4886C13.077 33.2726 13.752 33.0296 14.418 32.7596C15.408 32.3636 16.101 31.9226 16.497 31.4366C16.893 30.9326 17.136 30.1316 17.226 29.0336C17.388 27.0536 17.523 25.0826 17.631 23.1206C17.739 21.1406 17.874 19.1696 18.036 17.2076ZM6.804 28.9256C4.752 29.0156 3.213 28.6376 2.187 27.7916C1.161 26.9276 0.648 25.8116 0.648 24.4436C0.666 23.8316 0.756 23.2286 0.918 22.6346C1.098 22.0226 1.341 21.4106 1.647 20.7986C1.953 20.1686 2.322 19.5296 2.754 18.8816C2.862 18.6836 2.979 18.5036 3.105 18.3416C3.231 18.1796 3.384 17.9636 3.564 17.6936C3.78 17.3876 3.969 17.1176 4.131 16.8836C4.293 16.6316 4.482 16.3616 4.698 16.0736C5.364 15.1016 6.03 14.1296 6.696 13.1576C7.362 12.1856 8.028 11.2136 8.694 10.2416C8.766 10.1336 8.838 10.0256 8.91 9.91763C8.982 9.79163 9.063 9.66563 9.153 9.53963C9.243 9.41363 9.342 9.26963 9.45 9.10763C9.666 8.80163 9.891 8.47763 10.125 8.13563C10.359 7.79363 10.566 7.50563 10.746 7.27163C12.186 5.09363 13.293 3.50063 14.067 2.49263C14.859 1.46663 15.489 0.809628 15.957 0.521627C16.425 0.233626 16.92 0.0896261 17.442 0.0896261C17.928 0.0896261 18.414 0.278626 18.9 0.656627C19.404 1.03463 19.656 1.56563 19.656 2.24963C19.656 2.98763 19.377 3.87863 18.819 4.92263C18.261 5.94863 17.604 6.97463 16.848 8.00063C16.11 9.02663 15.462 9.89963 14.904 10.6196C14.508 11.1236 13.923 11.8706 13.149 12.8606C12.375 13.8326 11.592 14.8316 10.8 15.8576C10.188 16.6676 9.603 17.4146 9.045 18.0986C8.487 18.7826 8.046 19.3136 7.722 19.6916C7.128 20.3936 6.606 21.0326 6.156 21.6086C5.724 22.1846 5.508 22.6616 5.508 23.0396C5.508 23.3276 5.643 23.5436 5.913 23.6876C6.183 23.8136 6.516 23.8316 6.912 23.7416C10.026 22.9856 13.14 22.2026 16.254 21.3926C19.368 20.5826 22.482 19.7996 25.596 19.0436C26.784 18.7556 27.792 18.8096 28.62 19.2056C29.448 19.6016 30.069 20.1956 30.483 20.9876C30.915 21.7616 31.131 22.5896 31.131 23.4716C31.131 24.5336 30.798 25.5056 30.132 26.3876C29.484 27.2696 28.458 27.7556 27.054 27.8456C23.688 28.0436 20.313 28.2416 16.929 28.4396C13.563 28.6196 10.188 28.7816 6.804 28.9256ZM26.082 25.8476C26.73 25.8476 27.297 25.6316 27.783 25.1996C28.269 24.7496 28.512 24.1916 28.512 23.5256C28.512 22.9316 28.278 22.4186 27.81 21.9866C27.342 21.5366 26.784 21.3116 26.136 21.3116C25.542 21.3116 25.038 21.5186 24.624 21.9326C24.228 22.3466 24.03 22.8776 24.03 23.5256C24.03 24.1916 24.192 24.7496 24.516 25.1996C24.858 25.6316 25.38 25.8476 26.082 25.8476ZM20.034 18.3416C19.692 18.3416 19.395 18.2246 19.143 17.9906C18.909 17.7386 18.792 17.4416 18.792 17.0996C18.792 16.7396 18.909 16.4426 19.143 16.2086C19.395 15.9746 19.692 15.8576 20.034 15.8576C20.412 15.8576 20.709 15.9746 20.925 16.2086C21.159 16.4426 21.276 16.7396 21.276 17.0996C21.276 17.4416 21.159 17.7386 20.925 17.9906C20.691 18.2246 20.394 18.3416 20.034 18.3416ZM17.604 7.21763C18.45 7.97363 18.945 8.62163 19.089 9.16163C19.251 9.70163 19.152 10.2056 18.792 10.6736C18.36 11.1596 17.865 11.3126 17.307 11.1326C16.749 10.9526 16.02 10.5116 15.12 9.80963C14.148 9.01763 13.176 8.24363 12.204 7.48763C11.25 6.71363 10.296 5.92163 9.342 5.11163C8.478 4.31963 7.911 3.62663 7.641 3.03263C7.389 2.42063 7.488 1.83563 7.938 1.27763C8.46 0.683627 9.045 0.467627 9.693 0.629626C10.359 0.773626 11.07 1.18763 11.826 1.87163C12.852 2.80763 13.842 3.70763 14.796 4.57163C15.75 5.43563 16.686 6.31763 17.604 7.21763ZM12.15 14.7776C13.068 15.4976 13.68 16.1366 13.986 16.6946C14.292 17.2526 14.238 17.8556 13.824 18.5036C13.374 19.1156 12.807 19.3676 12.123 19.2596C11.439 19.1516 10.692 18.7736 9.882 18.1256C8.622 17.1716 7.416 16.2536 6.264 15.3716C5.112 14.4716 3.978 13.5356 2.862 12.5636C1.944 11.8616 1.377 11.2406 1.161 10.7006C0.945 10.1606 1.008 9.66563 1.35 9.21563C1.674 8.78363 2.115 8.61263 2.673 8.70263C3.249 8.77463 3.924 9.07163 4.698 9.59363C6.048 10.4756 7.335 11.3486 8.559 12.2126C9.801 13.0766 10.998 13.9316 12.15 14.7776Z" fill="url(#paint0_linear_333_1294)"/>
<defs>
<linearGradient id="paint0_linear_333_1294" x1="0" y1="18.6196" x2="32" y2="18.6196" gradientUnits="userSpaceOnUse">
<stop stop-color="#2EFF5B"/>
<stop offset="0.6" stop-color="#FFE625"/>
</linearGradient>
</defs>
</svg>
