<svg width="31" height="42" viewBox="0 0 31 42" fill="none" xmlns="http://www.w3.org/2000/svg">
<path d="M0.841797 28.4202C0.841797 27.137 0.973633 25.9856 1.2373 24.9661C1.50098 23.9465 1.99316 23.1204 2.71387 22.4875C3.03027 22.4875 4.1377 22.6809 6.03613 23.0676C6.33496 21.1165 6.56348 19.1741 6.72168 17.2405C6.87988 15.2893 6.95898 13.136 6.95898 10.7805C6.95898 8.95239 6.90625 6.92212 6.80078 4.6897C7.57422 3.49438 8.56738 2.56274 9.78027 1.89478C10.9932 1.22681 12.2588 0.892822 13.5771 0.892822C14.8252 0.892822 15.9238 1.10376 16.873 1.52563C17.8223 1.94751 18.5518 2.54517 19.0615 3.3186C18.71 7.30884 17.9805 10.9915 16.873 14.3665C15.7129 17.9172 14.2979 21.4504 12.6279 24.9661L20.5645 25.5461C20.1953 20.554 19.9844 16.6692 19.9316 13.8918C20.7402 13.3821 21.6455 12.9866 22.6475 12.7053C23.6494 12.4241 24.6689 12.2834 25.7061 12.2834C26.6553 12.2834 27.5605 12.3977 28.4219 12.6262C29.3008 12.8547 30.083 13.1975 30.7686 13.6545C30.5576 18.4182 30.2764 23.0588 29.9248 27.5764C29.5732 32.094 29.0723 36.3831 28.4219 40.4436C27.666 40.8479 26.9717 41.1379 26.3389 41.3137C25.7061 41.5071 24.9941 41.6038 24.2031 41.6038C22.8672 41.6038 21.5312 41.3313 20.1953 40.7864L20.4326 33.7463L10.5449 31.2151C9.12109 33.2893 7.30176 34.3792 5.08691 34.4846C4.36621 34.2913 3.68066 33.887 3.03027 33.2717C2.37988 32.6565 1.85254 31.9182 1.44824 31.0569C1.04395 30.1956 0.841797 29.3167 0.841797 28.4202Z" fill="url(#paint0_linear_334_1315)"/>
<defs>
<linearGradient id="paint0_linear_334_1315" x1="1" y1="14.6165" x2="34" y2="14.6165" gradientUnits="userSpaceOnUse">
<stop stop-color="#D34FFF"/>
<stop offset="0.6" stop-color="#41D6FF"/>
</linearGradient>
</defs>
</svg>
