<svg width="25" height="40" viewBox="0 0 25 40" fill="none" xmlns="http://www.w3.org/2000/svg">
<path d="M15.66 4.224C16.02 7.086 16.371 9.984 16.713 12.918C17.073 15.852 17.424 18.75 17.766 21.612C16.308 21.756 15.219 21.954 14.499 22.206C13.797 22.44 13.338 22.701 13.122 22.989C12.906 23.277 12.816 23.592 12.852 23.934C12.906 24.492 13.266 24.87 13.932 25.068C14.616 25.266 16.038 25.248 18.198 25.014C18.252 25.5 18.306 25.977 18.36 26.445C18.414 26.913 18.468 27.39 18.522 27.876C15.912 27.948 14.22 28.227 13.446 28.713C12.69 29.199 12.402 29.82 12.582 30.576C12.69 30.9 12.924 31.143 13.284 31.305C13.662 31.467 14.283 31.539 15.147 31.521C16.029 31.503 17.298 31.386 18.954 31.17C19.062 32.034 19.26 32.727 19.548 33.249C19.854 33.771 20.214 34.185 20.628 34.491C21.042 34.797 21.465 35.049 21.897 35.247C22.329 35.445 22.734 35.643 23.112 35.841C23.508 36.021 23.823 36.264 24.057 36.57C24.291 36.858 24.408 37.272 24.408 37.812C24.408 38.478 24.201 38.982 23.787 39.324C23.373 39.666 22.788 39.828 22.032 39.81C21.384 39.792 20.745 39.774 20.115 39.756C19.485 39.738 18.846 39.72 18.198 39.702C17.856 39.702 17.514 39.693 17.172 39.675C16.848 39.657 16.506 39.648 16.146 39.648C15.876 39.648 15.606 39.639 15.336 39.621C15.084 39.621 14.823 39.612 14.553 39.594C14.301 39.576 14.04 39.576 13.77 39.594C13.266 39.576 12.771 39.567 12.285 39.567C11.799 39.567 11.304 39.558 10.8 39.54C10.458 39.54 10.116 39.531 9.774 39.513C9.45 39.495 9.108 39.486 8.748 39.486C8.406 39.486 8.046 39.468 7.668 39.432C7.308 39.414 6.948 39.414 6.588 39.432C6.066 39.414 5.535 39.396 4.995 39.378C4.455 39.36 3.924 39.342 3.402 39.324C2.43 39.288 1.719 39.09 1.269 38.73C0.819 38.352 0.594 37.884 0.594 37.326C0.594 36.732 0.756 36.282 1.08 35.976C1.404 35.67 1.818 35.436 2.322 35.274C2.844 35.094 3.402 34.914 3.996 34.734C4.608 34.554 5.193 34.32 5.751 34.032C6.327 33.744 6.822 33.33 7.236 32.79C7.65 32.232 7.92 31.476 8.046 30.522C8.334 28.65 8.631 26.751 8.937 24.825C9.261 22.881 9.576 20.928 9.882 18.966C9.936 18.66 9.99 18.363 10.044 18.075C10.098 17.769 10.152 17.472 10.206 17.184C10.26 16.878 10.314 16.581 10.368 16.293C10.422 15.987 10.476 15.69 10.53 15.402C10.62 14.916 10.701 14.43 10.773 13.944C10.863 13.458 10.944 12.972 11.016 12.486C11.07 12.126 11.124 11.784 11.178 11.46C11.232 11.136 11.286 10.812 11.34 10.488C11.394 10.218 11.439 9.948 11.475 9.678C11.511 9.408 11.556 9.138 11.61 8.868C11.754 7.986 11.637 7.41 11.259 7.14C10.881 6.852 10.278 6.762 9.45 6.87C8.64 6.978 7.65 7.158 6.48 7.41C5.4 7.626 4.509 7.716 3.807 7.68C3.123 7.644 2.61 7.473 2.268 7.167C1.944 6.843 1.782 6.402 1.782 5.844C1.782 5.43 1.926 5.043 2.214 4.683C2.502 4.323 2.952 4.026 3.564 3.792C5.238 3.108 6.588 2.55 7.614 2.118C8.658 1.686 9.477 1.362 10.071 1.146C10.683 0.911998 11.178 0.758998 11.556 0.686999C11.934 0.596999 12.294 0.569999 12.636 0.605999C13.554 0.605999 14.256 0.911999 14.742 1.524C15.228 2.136 15.534 3.036 15.66 4.224ZM13.716 15.456C13.104 15.456 12.627 15.195 12.285 14.673C11.943 14.151 11.772 13.584 11.772 12.972C11.772 12.324 11.961 11.802 12.339 11.406C12.717 11.01 13.23 10.812 13.878 10.812C14.454 10.812 14.949 11.01 15.363 11.406C15.777 11.802 15.984 12.324 15.984 12.972C15.984 13.638 15.759 14.223 15.309 14.727C14.877 15.213 14.346 15.456 13.716 15.456ZM11.232 23.124L11.88 26.634C11.466 26.706 11.106 26.679 10.8 26.553C10.512 26.427 10.278 26.229 10.098 25.959C9.936 25.689 9.846 25.392 9.828 25.068C9.81 24.798 9.846 24.537 9.936 24.285C10.026 24.015 10.179 23.781 10.395 23.583C10.611 23.367 10.89 23.214 11.232 23.124ZM16.848 16.374L16.362 12.486C18.162 12.234 19.62 12.117 20.736 12.135C21.87 12.135 22.437 12.702 22.437 13.836C22.437 14.538 22.032 15.06 21.222 15.402C20.43 15.726 18.972 16.05 16.848 16.374ZM10.368 31.764C9.936 31.764 9.576 31.602 9.288 31.278C9 30.936 8.856 30.54 8.856 30.09C8.856 29.622 9 29.235 9.288 28.929C9.576 28.623 9.936 28.47 10.368 28.47C10.8 28.47 11.169 28.623 11.475 28.929C11.781 29.235 11.934 29.622 11.934 30.09C11.934 30.54 11.781 30.936 11.475 31.278C11.169 31.602 10.8 31.764 10.368 31.764Z" fill="url(#paint0_linear_333_1291)"/>
<defs>
<linearGradient id="paint0_linear_333_1291" x1="0" y1="20" x2="26" y2="20" gradientUnits="userSpaceOnUse">
<stop stop-color="#2EFF5B"/>
<stop offset="1" stop-color="#FFE625"/>
</linearGradient>
</defs>
</svg>
