<svg width="16" height="32" viewBox="0 0 16 32" fill="none" xmlns="http://www.w3.org/2000/svg">
<path d="M4.90625 17.0254C4.90625 14.3535 5.01172 11.5059 5.22266 8.48242C4.02734 8.23633 2.96387 7.91113 2.03223 7.50684C1.10059 7.08496 0.467773 6.66309 0.133789 6.24121C0.133789 3.95605 0.467773 1.96973 1.13574 0.282227H11.0762C12.4648 0.282227 13.502 0.598633 14.1875 1.23145C14.8906 1.86426 15.3389 2.65527 15.5322 3.60449C15.7256 4.55371 15.8223 5.73145 15.8223 7.1377C15.8223 9.44043 15.7344 11.8223 15.5586 14.2832C15.4004 16.7441 15.1543 19.8379 14.8203 23.5645C14.627 25.4629 14.4336 27.7393 14.2402 30.3936C12.8164 31.167 11.2344 31.5537 9.49414 31.5537C7.98242 31.5537 6.55859 31.2812 5.22266 30.7363C5.01172 27.3086 4.90625 22.7383 4.90625 17.0254Z" fill="url(#paint0_linear_334_1312)"/>
<defs>
<linearGradient id="paint0_linear_334_1312" x1="-1" y1="11" x2="20" y2="11" gradientUnits="userSpaceOnUse">
<stop stop-color="#D34FFF"/>
<stop offset="1" stop-color="#41D6FF"/>
</linearGradient>
</defs>
</svg>
